<?xml version="1.0" encoding="UTF-8"?>
<svg id="Layer_1" data-name="Layer 1" xmlns="http://www.w3.org/2000/svg" viewBox="0 0 2404 1475">
  <defs>
    <style>
      .cls-1 {
        fill: #088cfc;
      }

      .cls-1, .cls-2, .cls-3, .cls-4, .cls-5, .cls-6, .cls-7, .cls-8, .cls-9, .cls-10, .cls-11, .cls-12, .cls-13, .cls-14, .cls-15, .cls-16, .cls-17, .cls-18, .cls-19, .cls-20, .cls-21, .cls-22, .cls-23, .cls-24, .cls-25, .cls-26 {
        stroke-width: 0px;
      }

      .cls-2 {
        fill: #e5f0f8;
      }

      .cls-27 {
        stroke: #6adb6a;
      }

      .cls-27, .cls-28, .cls-29, .cls-30, .cls-31, .cls-32, .cls-33, .cls-34, .cls-35, .cls-36, .cls-37, .cls-38 {
        stroke-miterlimit: 10;
      }

      .cls-27, .cls-28, .cls-29, .cls-39, .cls-31, .cls-32, .cls-40, .cls-41, .cls-33, .cls-34, .cls-35, .cls-36, .cls-37, .cls-38 {
        fill: none;
      }

      .cls-27, .cls-37 {
        stroke-width: 4.99px;
      }

      .cls-3 {
        fill: #332b27;
      }

      .cls-4 {
        fill: #403534;
      }

      .cls-5 {
        fill: #2ec6fc;
      }

      .cls-28 {
        stroke-width: 3.34px;
      }

      .cls-28, .cls-29, .cls-30, .cls-31 {
        stroke: #bbdbf3;
      }

      .cls-29 {
        stroke-width: 5.59px;
      }

      .cls-6 {
        fill: #40a87b;
      }

      .cls-7 {
        fill: #e89780;
      }

      .cls-8 {
        fill: #2d628c;
      }

      .cls-9 {
        fill: #f9ecb8;
      }

      .cls-10 {
        fill: #bbdbf3;
      }

      .cls-11 {
        fill: #89a5c7;
      }

      .cls-12 {
        fill: #fdae97;
      }

      .cls-30 {
        stroke-width: 4.53px;
      }

      .cls-30, .cls-15 {
        fill: #fff;
      }

      .cls-13 {
        fill: #f2bb16;
      }

      .cls-39 {
        stroke-width: .51px;
      }

      .cls-39, .cls-40, .cls-41 {
        stroke-linecap: round;
        stroke-linejoin: round;
      }

      .cls-39, .cls-33 {
        stroke: #e89780;
      }

      .cls-14 {
        fill: #b86b76;
      }

      .cls-31 {
        stroke-width: 3.44px;
      }

      .cls-16 {
        fill: #f9e181;
      }

      .cls-32 {
        stroke-width: .76px;
      }

      .cls-32, .cls-35 {
        stroke: #2c3447;
      }

      .cls-17 {
        fill: #a5bbd6;
      }

      .cls-18 {
        fill: #6adb6a;
      }

      .cls-19 {
        fill: #b83232;
      }

      .cls-20 {
        fill: #2c3447;
      }

      .cls-21 {
        fill: #93acbf;
      }

      .cls-40 {
        stroke: #93acbf;
        stroke-width: 5.55px;
      }

      .cls-41 {
        stroke-width: .4px;
      }

      .cls-41, .cls-34, .cls-38 {
        stroke: #fff;
      }

      .cls-33 {
        stroke-width: .61px;
      }

      .cls-22 {
        fill: #e7888b;
      }

      .cls-23 {
        fill: #322a28;
      }

      .cls-34 {
        stroke-width: .99px;
      }

      .cls-35 {
        stroke-width: .76px;
      }

      .cls-36 {
        stroke: #322a28;
        stroke-width: .88px;
      }

      .cls-24 {
        fill: #586773;
      }

      .cls-37 {
        stroke: #40a87b;
      }

      .cls-25 {
        fill: #f74242;
      }

      .cls-38 {
        stroke-width: .67px;
      }

      .cls-26 {
        fill: #0775ef;
      }
    </style>
  </defs>
  <path class="cls-2" d="M339.57,1424.12S-349.81-82.78,915.27,19.22c541.84,43.69,440.69,308.73,679.99,556.72,155.12,160.74,453.45,29.25,565.25,169.71,111.8,140.46-19.58,540.98-65.67,678.47H339.57Z"/>
  <g>
    <path class="cls-6" d="M2021.13,1418.7s44.46-177.33,155.27-232.06c110.82-54.73,229.09,20.2,199.06,98.98-25.9,67.94-132.39-15.6-215.24,17.25-82.85,32.85-95.91,115.82-95.91,115.82h-43.17Z"/>
    <path class="cls-27" d="M2354.04,1238.38s-118.93-67.78-207.17-5.12c-88.24,62.66-116.17,185.43-116.17,185.43"/>
    <line class="cls-27" x1="2334.86" y1="1206.68" x2="2307.19" y2="1218.75"/>
    <line class="cls-27" x1="2294.89" y1="1180.83" x2="2239.78" y2="1206.68"/>
    <line class="cls-27" x1="2212.09" y1="1180.83" x2="2183.41" y2="1214.71"/>
    <line class="cls-27" x1="2157.74" y1="1203.53" x2="2144.85" y2="1234.73"/>
    <line class="cls-27" x1="2321.02" y1="1281.54" x2="2278.54" y2="1211.27"/>
    <line class="cls-27" x1="2245.98" y1="1271.47" x2="2207.02" y2="1208.9"/>
    <line class="cls-27" x1="2179.8" y1="1261.88" x2="2121.22" y2="1254.6"/>
    <line class="cls-27" x1="2111.61" y1="1297.37" x2="2078.03" y2="1308.39"/>
  </g>
  <g>
    <path class="cls-18" d="M1983.01,1419.22s-31.37-594.4,252.54-517.8c283.91,76.6-221.46,396.95-221.03,517.8h-31.5Z"/>
    <path class="cls-37" d="M1994.48,1419.22s9.91-310.55,212.29-464.11"/>
    <line class="cls-37" x1="2118.01" y1="1045.15" x2="2123.07" y2="938.06"/>
    <line class="cls-37" x1="2276.79" y1="1000.78" x2="2140" y2="1018.61"/>
    <line class="cls-37" x1="2223.59" y1="1092.18" x2="2078.96" y2="1109.03"/>
    <line class="cls-37" x1="2151.28" y1="1182.75" x2="2039.57" y2="1198.54"/>
    <line class="cls-37" x1="2028.85" y1="1098.12" x2="2054.45" y2="1160.33"/>
    <line class="cls-37" x1="2070.92" y1="997.16" x2="2092.75" y2="1084.74"/>
    <line class="cls-37" x1="2004.95" y1="1201.97" x2="2025.35" y2="1242.63"/>
    <line class="cls-37" x1="2092.75" y1="1266.71" x2="2012.7" y2="1291.95"/>
  </g>
  <g>
    <path class="cls-6" d="M382.87,1418.7s-44.46-177.33-155.27-232.06c-110.82-54.73-229.09,20.2-199.06,98.98,25.9,67.94,132.39-15.6,215.24,17.25,82.85,32.85,95.91,115.82,95.91,115.82h43.17Z"/>
    <path class="cls-27" d="M49.96,1238.38s118.93-67.78,207.17-5.12c88.24,62.66,116.17,185.43,116.17,185.43"/>
    <line class="cls-27" x1="69.14" y1="1206.68" x2="96.81" y2="1218.75"/>
    <line class="cls-27" x1="109.11" y1="1180.83" x2="164.22" y2="1206.68"/>
    <line class="cls-27" x1="191.91" y1="1180.83" x2="220.59" y2="1214.71"/>
    <line class="cls-27" x1="246.26" y1="1203.53" x2="259.15" y2="1234.73"/>
    <line class="cls-27" x1="82.98" y1="1281.54" x2="125.46" y2="1211.27"/>
    <line class="cls-27" x1="158.02" y1="1271.47" x2="196.98" y2="1208.9"/>
    <line class="cls-27" x1="224.2" y1="1261.88" x2="282.78" y2="1254.6"/>
    <line class="cls-27" x1="292.39" y1="1297.37" x2="325.97" y2="1308.39"/>
  </g>
  <g>
    <path class="cls-18" d="M416.59,1419.22s31.37-594.4-252.54-517.8c-283.91,76.6,221.46,396.95,221.03,517.8h31.5Z"/>
    <path class="cls-37" d="M405.12,1419.22s-9.91-310.55-212.29-464.11"/>
    <line class="cls-37" x1="281.59" y1="1045.15" x2="276.53" y2="938.06"/>
    <line class="cls-37" x1="122.81" y1="1000.78" x2="259.6" y2="1018.61"/>
    <line class="cls-37" x1="176.01" y1="1092.18" x2="320.64" y2="1109.03"/>
    <line class="cls-37" x1="248.32" y1="1182.75" x2="360.03" y2="1198.54"/>
    <line class="cls-37" x1="370.75" y1="1098.12" x2="345.15" y2="1160.33"/>
    <line class="cls-37" x1="328.68" y1="997.16" x2="306.85" y2="1084.74"/>
    <line class="cls-37" x1="394.65" y1="1201.97" x2="374.25" y2="1242.63"/>
    <line class="cls-37" x1="306.85" y1="1266.71" x2="386.9" y2="1291.95"/>
  </g>
  <rect class="cls-26" x="259.15" y="1414.08" width="1870.59" height="46.66" rx="21.05" ry="21.05"/>
  <path class="cls-15" d="M350.27,581.51h-21.43v-29.61c0-15.76-12.82-28.59-28.59-28.59s-28.59,12.82-28.59,28.59v29.61h-21.43c-1.42,0-2.57,1.15-2.57,2.56v78.61c0,1.42,1.15,2.56,2.57,2.56h100.03c1.42,0,2.57-1.14,2.57-2.56v-78.61c0-1.41-1.15-2.56-2.57-2.56ZM280.73,551.9c0-10.77,8.76-19.53,19.53-19.53s19.53,8.76,19.53,19.53v29.61h-39.06v-29.61Z"/>
  <path class="cls-2" d="M1985.06,133.43c12.37,17.88,35.68,23.5,54.7,14.45l45.91,66.37,11.5-7.96-45.9-66.36c15.23-14.6,18.16-38.38,5.77-56.29-13.74-19.86-41.01-24.91-60.87-11.17-19.86,13.74-24.85,41.1-11.11,60.96ZM2049.22,89.05c10.7,15.47,6.8,36.88-8.67,47.58-15.56,10.76-36.88,6.8-47.58-8.67-10.76-15.56-6.88-36.82,8.67-47.58,15.47-10.7,36.82-6.88,47.58,8.67Z"/>
  <g>
    <path class="cls-2" d="M1534.59,105.66h244.2c3.59,0,6.58-2.79,6.77-6.37.74-13.5-.77-43.75-29.21-43.77-31.5-.02-41.72,13.44-41.72,13.44,0,0,2.76-54.78-51.17-54.7-49.65.07-67.7,50.9-67.7,50.9,0,0-47.53-22.38-67.5,31.28-1.66,4.45,1.59,9.21,6.34,9.21Z"/>
    <polygon class="cls-15" points="1656.74 34.31 1638.24 59.77 1647.18 59.77 1647.18 85.62 1666.3 85.62 1666.3 59.77 1675.25 59.77 1656.74 34.31"/>
  </g>
  <g>
    <rect class="cls-2" x="2009.61" y="549.2" width="17.44" height="47.63"/>
    <rect class="cls-2" x="2037.23" y="524.7" width="17.44" height="72.13"/>
    <rect class="cls-2" x="2064.86" y="488.22" width="17.44" height="108.6"/>
    <rect class="cls-2" x="2092.48" y="510.72" width="17.44" height="86.1"/>
    <rect class="cls-2" x="2120.1" y="520.21" width="17.44" height="76.61"/>
    <rect class="cls-2" x="2147.73" y="501.56" width="17.44" height="95.26"/>
    <rect class="cls-2" x="2175.35" y="480.37" width="17.44" height="116.46"/>
  </g>
  <g>
    <rect class="cls-24" x="1064.58" y="1025.64" width="258.74" height="349.75"/>
    <rect class="cls-24" x="391.41" y="128.97" width="1605.08" height="1044.93" rx="142.44" ry="142.44"/>
    <rect class="cls-2" x="724.89" y="-97.69" width="938.12" height="1498.27" rx="89.04" ry="89.04" transform="translate(1845.39 -542.51) rotate(90)"/>
    <path class="cls-10" d="M1889.67,271.43v49.09H498.21v-49.09c0-19.65,16-35.65,35.65-35.65h1320.16c19.65,0,35.65,16,35.65,35.65Z"/>
    <path class="cls-15" d="M1889.68,322.54v710.92c0,19.65-16,35.65-35.65,35.65H533.86c-19.65,0-35.65-16-35.65-35.65V322.54h1391.47Z"/>
    <circle class="cls-6" cx="574.22" cy="280.84" r="13.66"/>
    <circle class="cls-15" cx="612.68" cy="280.84" r="13.66"/>
    <circle class="cls-25" cx="651.15" cy="280.84" r="13.66"/>
    <path class="cls-24" d="M715.3,1345.37h957.31c6.83,0,12.37,5.54,12.37,12.37v43.87c0,6.83-5.54,12.37-12.37,12.37h-957.31c-6.83,0-12.37-5.54-12.37-12.37v-43.87c0-6.83,5.54-12.37,12.37-12.37Z"/>
    <rect class="cls-10" x="531.61" y="356.68" width="119.01" height="18.51"/>
    <polygon class="cls-10" points="965.03 403.68 802.77 403.68 498.21 403.68 498.21 466.66 1889.67 466.66 1889.67 403.68 965.03 403.68"/>
    <rect class="cls-10" x="678" y="356.68" width="119.01" height="18.51"/>
    <rect class="cls-10" x="824.4" y="356.68" width="119.01" height="18.51"/>
    <rect class="cls-10" x="970.79" y="356.68" width="119.01" height="18.51"/>
    <rect class="cls-15" x="531.61" y="428.68" width="150.89" height="12.5"/>
    <rect class="cls-15" x="717.22" y="428.68" width="150.89" height="12.5"/>
    <rect class="cls-15" x="902.82" y="428.68" width="150.89" height="12.5"/>
    <rect class="cls-15" x="1088.43" y="428.68" width="150.89" height="12.5"/>
    <rect class="cls-10" x="1117.18" y="356.68" width="119.01" height="18.51"/>
    <rect class="cls-10" x="1263.57" y="356.68" width="119.01" height="18.51"/>
    <rect class="cls-29" x="1477.61" y="335.17" width="172.97" height="56.62"/>
    <rect class="cls-10" x="1674.59" y="335.17" width="172.97" height="56.62"/>
    <g>
      <path class="cls-18" d="M1822.77,659.37c-24.44-98.53-113.43-171.58-219.52-171.58-53.62,0-102.85,18.7-141.62,49.87l141.62,176.33,219.52-54.62Z"/>
      <path class="cls-25" d="M1802.24,852.18c28.27-37.76,45.01-84.64,45.01-135.43,0-18.84-2.34-37.12-6.68-54.62l-219.52,54.62,181.19,135.43Z"/>
      <path class="cls-9" d="M1610.07,940.02c71.33-2.12,134.39-37.19,174.37-90.6l-181.19-135.43,6.82,226.03Z"/>
      <path class="cls-16" d="M1601.79,961.11l-6.82-226.03-159.35,160.52c40.89,40.59,97.18,65.68,159.35,65.68,2.29,0,4.55-.1,6.82-.17Z"/>
      <path class="cls-5" d="M1388.06,783.72c11.23,34.68,30.58,65.7,55.84,90.78l159.35-160.52-215.2,69.74Z"/>
      <path class="cls-1" d="M1461.64,537.66c-51.56,41.46-84.58,105.02-84.58,176.33,0,24.34,3.89,47.76,11.01,69.74l215.2-69.74-141.62-176.33Z"/>
    </g>
    <g>
      <rect class="cls-10" x="531.45" y="489.44" width="819.52" height="54.76"/>
      <rect class="cls-2" x="531.45" y="544.2" width="819.52" height="195.44"/>
      <rect class="cls-15" x="560.7" y="510.62" width="265.88" height="12.19"/>
      <rect class="cls-15" x="842.78" y="510.62" width="180.04" height="12.19"/>
      <rect class="cls-31" x="560.83" y="563.68" width="760.75" height="156.47"/>
      <rect class="cls-31" x="560.83" y="563.68" width="66.01" height="156.47"/>
      <rect class="cls-31" x="626.84" y="563.68" width="381.56" height="156.47"/>
      <rect class="cls-31" x="1261.37" y="563.68" width="60.21" height="156.47"/>
      <rect class="cls-31" x="1201.16" y="563.68" width="60.21" height="156.47"/>
      <rect class="cls-31" x="1125.93" y="563.68" width="75.23" height="156.47"/>
      <rect class="cls-31" x="1008.4" y="563.68" width="117.53" height="156.47"/>
      <rect class="cls-31" x="560.83" y="610.35" width="760.75" height="36.6"/>
      <rect class="cls-31" x="560.83" y="646.95" width="760.75" height="36.6"/>
      <rect class="cls-31" x="560.83" y="683.55" width="760.75" height="36.6"/>
    </g>
    <g>
      <rect class="cls-10" x="570.32" y="843.82" width="18.68" height="202.41"/>
      <rect class="cls-9" x="592.61" y="940.46" width="18.68" height="105.77"/>
      <rect class="cls-10" x="637.81" y="871.22" width="18.68" height="175.01"/>
      <rect class="cls-9" x="660.1" y="814.11" width="18.68" height="232.12"/>
      <rect class="cls-10" x="705.3" y="938.44" width="18.68" height="107.79"/>
      <rect class="cls-9" x="727.59" y="864.48" width="18.68" height="181.75"/>
      <rect class="cls-10" x="772.79" y="831.27" width="18.68" height="214.96"/>
      <rect class="cls-9" x="795.08" y="860.19" width="18.68" height="186.04"/>
      <rect class="cls-10" x="840.27" y="984.88" width="18.68" height="61.35"/>
      <rect class="cls-10" x="907.76" y="936.12" width="18.68" height="110.11"/>
      <rect class="cls-9" x="862.57" y="886.75" width="18.68" height="159.48"/>
      <rect class="cls-9" x="930.06" y="1001.08" width="18.68" height="45.15"/>
      <rect class="cls-10" x="975.25" y="818.56" width="18.68" height="227.67"/>
      <rect class="cls-9" x="997.54" y="852.17" width="18.68" height="194.06"/>
      <polyline class="cls-28" points="542.76 760.34 542.76 1046.23 1065.47 1046.23"/>
    </g>
    <g>
      <g>
        <rect class="cls-30" x="1282.99" y="987.36" width="56.77" height="58.86"/>
        <rect class="cls-30" x="1142.33" y="987.36" width="140.66" height="58.86"/>
        <rect class="cls-30" x="1091.2" y="987.36" width="51.13" height="58.86"/>
        <rect class="cls-30" x="1339.76" y="987.36" width="46.28" height="58.86"/>
        <rect class="cls-30" x="1386.04" y="987.36" width="49.91" height="58.86"/>
      </g>
      <rect class="cls-30" x="1282.99" y="928.5" width="56.77" height="58.86"/>
      <rect class="cls-30" x="1142.33" y="928.5" width="140.66" height="58.86"/>
      <rect class="cls-30" x="1091.2" y="928.5" width="51.13" height="58.86"/>
      <rect class="cls-30" x="1339.76" y="928.5" width="46.28" height="58.86"/>
      <rect class="cls-30" x="1386.04" y="928.5" width="49.91" height="58.86"/>
      <rect class="cls-2" x="1158.56" y="952.32" width="108.19" height="11.23"/>
      <rect class="cls-2" x="1158.56" y="1011.18" width="108.19" height="11.23"/>
    </g>
  </g>
  <g>
    <path class="cls-21" d="M2099.1,919.06c0,150.76-72.57,282.74-191.36,339.27l-10.02-21.06-24.75-52c89.35-42.54,145.21-148.32,145.21-266.2,0-158.39-104.37-287.24-232.65-287.24v-80.92c.78,0,1.55,0,2.33.03,84.28.69,163,39.88,221.86,110.5,57.64,69.15,89.38,160.64,89.38,257.63Z"/>
    <path class="cls-10" d="M2099.1,919.06c0,150.76-72.57,282.74-191.36,339.27l-10.02-21.06c31.83-16.48,65.13-40.57,92.91-75.73,81.25-102.84,97.76-253.77,44.68-399.9-53.08-146.13-221.8-185.03-221.8-185.03h-27.67l2.03-25.67c84.28.69,163,39.88,221.86,110.5,57.64,69.15,89.38,160.64,89.38,257.63Z"/>
    <path class="cls-24" d="M1835.81,619.64v-57.09c0-9.17-7.43-16.6-16.6-16.6h-27.68v87.95c-6.68,7.79-10.75,17.89-10.75,28.96,0,24.59,19.93,44.52,44.52,44.52s44.52-19.93,44.52-44.52c0-20.96-14.5-38.49-34.01-43.22Z"/>
    <path class="cls-21" d="M1783.75,492.22v21.51h-65.91v-21.51c0-4.16,3.39-7.55,7.58-7.55h50.75c4.19,0,7.58,3.39,7.58,7.55Z"/>
    <path class="cls-21" d="M1799.32,520.33v32.36h-109.11v-32.36c0-3.66,2.97-6.6,6.63-6.6h95.87c3.66,0,6.6,2.94,6.6,6.6Z"/>
    <path class="cls-10" d="M1756.81,492.22v21.51h-38.96v-21.51c0-4.16,3.39-7.55,7.58-7.55h23.84c4.16,0,7.55,3.39,7.55,7.55Z"/>
    <path class="cls-10" d="M1772.4,520.33v32.36h-82.19v-32.36c0-3.66,2.97-6.6,6.63-6.6h68.96c3.66,0,6.6,2.94,6.6,6.6Z"/>
    <path class="cls-21" d="M1825.32,560.54v201.79c0,4.33-3.52,7.85-7.88,7.85h-170.35c-4.36,0-7.88-3.52-7.88-7.85v-201.79c0-4.33,3.52-7.85,7.88-7.85h170.35c4.36,0,7.88,3.52,7.88,7.85Z"/>
    <path class="cls-10" d="M1795.65,552.68v180.01c0,4.33-3.5,7.85-7.85,7.85h-148.6v-180.01c0-4.33,3.52-7.85,7.88-7.85h148.57Z"/>
    <path class="cls-21" d="M1774.41,869.38h-21.02c-1.99,0-3.67-1.49-3.9-3.46l-2.36-19.45h33.54l-2.36,19.45c-.24,1.97-1.92,3.46-3.9,3.46Z"/>
    <rect class="cls-24" x="1702.26" y="770.19" width="104.86" height="20.55"/>
    <path class="cls-24" d="M1785.34,854.03h-43.12c-1.88,0-3.5-1.33-3.86-3.18l-4.93-25.16h60.69l-4.93,25.16c-.36,1.85-1.98,3.18-3.86,3.18Z"/>
    <path class="cls-10" d="M1798.31,820.26h-186.13c-1.89,0-3.52-1.35-3.87-3.21l-4.07-21.65c-.46-2.42,1.4-4.66,3.87-4.66h199.01l-4.95,26.31c-.35,1.86-1.97,3.21-3.87,3.21Z"/>
    <path class="cls-21" d="M1659.63,869.38h-21.02c-1.99,0-3.67-1.49-3.9-3.46l-2.36-19.45h33.54l-2.36,19.45c-.24,1.97-1.92,3.46-3.9,3.46Z"/>
    <path class="cls-24" d="M1670.57,854.03h-43.12c-1.88,0-3.5-1.33-3.86-3.18l-4.93-25.16h60.69l-4.93,25.16c-.36,1.85-1.98,3.18-3.86,3.18Z"/>
    <rect class="cls-21" x="1612.96" y="820.26" width="185.38" height="10.86" rx="3.15" ry="3.15"/>
    <path class="cls-21" d="M1805.48,1181.18v15.98h-175.24v-15.98c0-4.33,3.52-7.85,7.85-7.85h159.5c4.36,0,7.88,3.52,7.88,7.85Z"/>
    <path class="cls-21" d="M1795.74,1173.36v6.18c0,5.78-4.69,10.47-10.47,10.47h-155.02v-8.82c0-4.34,3.52-7.85,7.85-7.85h157.62s.02.02.03.03Z"/>
    <path class="cls-21" d="M1574.1,1371.71h422.12c4.34,0,7.87,3.52,7.87,7.87v34.32h-437.85v-34.32c0-4.34,3.52-7.87,7.87-7.87Z"/>
    <path class="cls-24" d="M1904.66,1206.69h-299.94c-3.13,0-5.66-2.54-5.66-5.66h0c0-3.13,2.54-5.66,5.66-5.66h299.94v11.33Z"/>
    <path class="cls-24" d="M1930.4,1371.71h-148.08l101.55-210.74c4.08-8.47,12.65-13.85,22.05-13.85h0c13.52,0,24.48,10.96,24.48,24.48v200.12Z"/>
    <g>
      <path class="cls-9" d="M1913.37,1214.17c-7.61,5.71-17.96,5.2-24.95-.67-1.15-.97-2.2-2.07-3.14-3.34-.93-1.24-1.71-2.58-2.31-3.93-3.68-8.35-1.29-18.42,6.33-24.14,7.61-5.71,17.94-5.19,24.93.68,1.13.96,2.2,2.07,3.13,3.32.95,1.26,1.71,2.58,2.33,3.95,3.68,8.35,1.29,18.42-6.31,24.13Z"/>
      <path class="cls-16" d="M1919.69,1190.05l-31.26,23.46c-1.15-.97-2.2-2.07-3.14-3.34-.93-1.24-1.71-2.58-2.31-3.93l31.26-23.46c1.13.96,2.2,2.07,3.13,3.32.95,1.26,1.71,2.58,2.33,3.95Z"/>
    </g>
    <g>
      <path class="cls-9" d="M1851.21,671.23c-4.1,3.07-9.67,2.8-13.44-.36-.62-.52-1.18-1.12-1.69-1.8-.5-.67-.92-1.39-1.24-2.12-1.98-4.5-.7-9.92,3.41-13,4.1-3.07,9.66-2.79,13.43.37.61.51,1.18,1.12,1.69,1.79.51.68.92,1.39,1.25,2.13,1.98,4.5.7,9.92-3.4,12.99Z"/>
      <path class="cls-16" d="M1854.61,658.24l-16.84,12.63c-.62-.52-1.18-1.12-1.69-1.8-.5-.67-.92-1.39-1.24-2.12l16.84-12.63c.61.51,1.18,1.12,1.69,1.79.51.68.92,1.39,1.25,2.13Z"/>
    </g>
    <path class="cls-24" d="M1612.28,1345.14h125.76c5.47,0,9.92,4.44,9.92,9.92v16.65h-145.6v-16.65c0-5.47,4.44-9.92,9.92-9.92Z"/>
    <path class="cls-21" d="M1640.45,1301.57h69.43c5.87,0,10.63,4.76,10.63,10.63v32.95h-90.69v-32.95c0-5.87,4.76-10.63,10.63-10.63Z"/>
    <line class="cls-40" x1="1861.51" y1="1243.85" x2="1869.23" y2="1228"/>
    <line class="cls-40" x1="1806.66" y1="1356.44" x2="1855.82" y2="1255.53"/>
    <line class="cls-40" x1="1655.74" y1="611.96" x2="1655.74" y2="721.14"/>
    <line class="cls-40" x1="1655.74" y1="584.68" x2="1655.74" y2="598.61"/>
    <path class="cls-40" d="M2063.09,780.31c11.76,33.01,21.03,72.85,22.9,118.68,3.1,75.82-15.84,140.87-34.37,185.33"/>
    <path class="cls-40" d="M2001.88,670.87s15.5,16.8,33.22,48.08"/>
  </g>
  <g>
    <polygon class="cls-21" points="306.08 772.89 340.04 722.87 356.06 802.32 331.07 866.61 306.08 772.89"/>
    <path class="cls-21" d="M791.28,1414.08h-359.03c-8.06,0-15.77-6.5-17.22-14.52l-110.92-612.62c-1.47-8.1-.31-16.36,7.8-16.36l355.74-50.43c8.1,0,15.84,6.57,17.28,14.67l118.36,664.74c1.43,8.02-3.95,14.52-12.01,14.52Z"/>
    <path class="cls-10" d="M832.64,1414.08h-359.03c-8.06,0-15.77-6.5-17.22-14.52l-120.36-664.74c-1.47-8.1,3.91-14.67,12.02-14.67h360.96c8.1,0,15.84,6.57,17.28,14.67l118.36,664.74c1.43,8.02-3.95,14.52-12.01,14.52Z"/>
    <polygon class="cls-24" points="702.48 745.95 811.09 1355.22 474.02 1355.22 430.58 1115.03 566.77 755.5 507.76 755.5 411.54 1009.78 363.83 745.95 702.48 745.95"/>
    <path class="cls-10" d="M582.81,742.31c.23,1.27.26,2.49.11,3.64-.22,2.18-1.05,4.13-2.32,5.67-1.97,2.4-5.01,3.88-8.62,3.88h-74.23c-5.98,0-11.8-4.06-14.37-9.55-.57-1.15-.97-2.37-1.2-3.64-.66-3.64.24-6.92,2.21-9.31,1.97-2.4,4.97-3.88,8.62-3.88h74.24c7.25,0,14.26,5.95,15.56,13.2Z"/>
    <polygon class="cls-21" points="566.77 755.5 430.58 1115.03 411.54 1009.78 507.76 755.5 566.77 755.5"/>
    <polygon class="cls-21" points="702.48 745.95 702.9 748.31 473.47 1352.19 436.46 1147.56 588.65 745.95 702.48 745.95"/>
    <polygon class="cls-21" points="753.31 1031.1 760.84 1073.36 653.38 1355.22 629.77 1355.22 753.31 1031.1"/>
    <polygon class="cls-21" points="763.17 1086.4 777.85 1168.75 706.67 1355.22 660.66 1355.22 763.17 1086.4"/>
    <path class="cls-21" d="M691.95,1401.4h-82.21c-9.4,0-18.47-7.65-20.15-17.01h0c-1.68-9.36,4.63-17.01,14.04-17.01h82.23c9.4,0,18.47,7.66,20.14,17.01h0c1.68,9.35-4.65,17.01-14.05,17.01Z"/>
  </g>
  <g>
    <path class="cls-26" d="M972.69,40.58H321.61c-7.71,0-13.96,7.7-13.96,17.19v393.92h679V57.77c0-9.49-6.25-17.19-13.96-17.19Z"/>
    <rect class="cls-15" x="315.23" y="87.97" width="663.83" height="353.68"/>
    <g>
      <g>
        <path class="cls-10" d="M630.43,281.73c0,78.64-63.75,142.32-142.32,142.32s-142.32-63.68-142.32-142.32h27.92c0,63.09,51.31,114.4,114.4,114.4s114.4-51.31,114.4-114.4-51.31-114.33-114.4-114.33v-27.92c78.56,0,142.32,63.68,142.32,142.24Z"/>
        <path class="cls-16" d="M488.11,139.49v27.92c-63.09,0-114.4,51.31-114.4,114.33h-27.92c0-78.56,63.75-142.24,142.32-142.24Z"/>
        <path class="cls-9" d="M488.11,167.4v31.17c-45.83,0-83.15,37.32-83.15,83.15h-31.25c0-63.01,51.31-114.33,114.4-114.33Z"/>
        <path class="cls-2" d="M602.51,281.73c0,63.09-51.31,114.4-114.4,114.4s-114.4-51.31-114.4-114.4h31.25c0,45.83,37.32,83.15,83.15,83.15s83.15-37.32,83.15-83.15-37.32-83.15-83.15-83.15v-31.17c63.09,0,114.4,51.31,114.4,114.33Z"/>
      </g>
      <g>
        <path class="cls-10" d="M948.5,281.73c0,78.64-63.75,142.32-142.32,142.32s-142.32-63.68-142.32-142.32c0-47.09,22.88-88.86,58.2-114.7l16.51,22.51c-28.36,20.88-46.8,54.42-46.8,92.19,0,63.09,51.31,114.4,114.4,114.4s114.4-51.31,114.4-114.4-51.31-114.33-114.4-114.33v-27.92c78.56,0,142.32,63.68,142.32,142.24Z"/>
        <path class="cls-2" d="M920.59,281.73c0,63.09-51.31,114.4-114.4,114.4s-114.4-51.31-114.4-114.4c0-37.76,18.44-71.31,46.8-92.19l18.44,25.1c-20.59,15.18-33.99,39.61-33.99,67.09,0,45.83,37.32,83.15,83.15,83.15s83.15-37.32,83.15-83.15-37.32-83.15-83.15-83.15v-31.17c63.09,0,114.4,51.31,114.4,114.33Z"/>
        <path class="cls-16" d="M806.19,139.49v27.92c-25.25,0-48.65,8.22-67.6,22.14l-16.51-22.51c23.55-17.33,52.65-27.55,84.12-27.55Z"/>
        <path class="cls-9" d="M806.19,167.41v31.17c-18.36,0-35.39,6-49.17,16.07l-18.44-25.1c18.96-13.92,42.35-22.14,67.6-22.14Z"/>
      </g>
      <rect class="cls-2" x="393.2" y="105.56" width="189.81" height="11.04"/>
      <rect class="cls-2" x="711.28" y="105.56" width="189.81" height="11.04"/>
    </g>
  </g>
  <g>
    <polygon class="cls-8" points="503.36 678.69 503.15 646.4 541.04 651.99 503.36 678.69"/>
    <path class="cls-12" d="M708.39,525.5l3.42-10.02s6.16-9.58,8-13.29c1.04-2.09,4.41-7.43,5.28-8.09.69-.52,2.69-.32,2.87.5.23,1.08-1.47,7.04-2.09,9.39-.59,2.23-2.36,8.94-2.36,8.94,0,0,12.94-11.76,17.05-15.95,2.31-2.36,8.78-9.52,10.52-8.02,1.33,1.14-4.47,9.21-6.42,11.99-1.8,2.56-7.12,10.27-7.12,10.27,0,0,9.03-9.39,12.04-12.52,2.19-2.28,7.86-9.89,9.86-8.26,1.98,1.61-4.15,8.7-5.94,11.3-2.52,3.66-10.06,14.65-10.06,14.65,0,0,9.67-9.61,12.89-12.81,1.78-1.77,6.41-7.74,8.18-6.1,1.8,1.68-3.65,7.09-5.22,9.11-2.69,3.47-10.76,13.87-10.76,13.87,0,0,7.18-6.75,9.57-9.01,1.02-.96,4.16-3.74,5.07-2.71,1.24,1.4-2.71,5.46-3.89,6.97l-9.72,12.44c-.79,1.01-1.69,1.91-2.68,2.7l-16.46,16.53-22.05-21.9Z"/>
    <path class="cls-14" d="M580.65,641.09l128.25,81.21c3.68,1.54,7.17,3.68,10.29,6.52,14.69,13.34,15.77,36.07,2.43,50.75-13.34,14.69-36.07,15.77-50.75,2.43l-147.84-77.5,57.62-63.42Z"/>
    <path class="cls-14" d="M730.79,760.42c.23-1.66.4-3.34.4-5.06,0-19.84-16.09-35.93-35.93-35.93s-35.93,16.09-35.93,35.93l2.12,160.43h59.79l9.55-155.37Z"/>
    <path class="cls-22" d="M512.66,703.81l80.32,96.08c14.18,16.96,39.66,19.24,56.62,5.06h0c16.96-14.18,19.24-39.66,5.06-56.62l-80.32-96.08c-14.18-16.96-39.66-19.24-56.62-5.06h0c-16.96,14.18-19.24,39.66-5.06,56.62Z"/>
    <polygon class="cls-2" points="578.39 486.91 616.39 504.02 611.15 658.36 503.15 660.03 488.07 491.06 539.53 484.09 578.39 486.91"/>
    <path class="cls-12" d="M578.38,464.62v24.1s-1.44,5.2-13.69,5.26c-12.23.03-25.16-8.09-25.16-8.09l3.79-52.7,35.07,31.43Z"/>
    <polygon class="cls-7" points="578.39 485.41 553.36 459.43 578.39 459.1 578.39 485.41"/>
    <path class="cls-12" d="M588.64,416.13v33.93c0,6.85-1.92,17-9.63,19.35-7.68,2.35-18.27-.86-25.64-8.87-7.38-8.03-23.75-44.21-.99-57.58,22.79-13.37,35.73,9.63,36.26,13.16Z"/>
    <path class="cls-16" d="M640.18,627.37c8.03,6.58,19.6,6.28,27.31-.21h0l67.56-78.18-9.28-9.78-17.07-18.04-1.96-2.1-69.57,78.34c-7.43,9.07-6.05,22.55,3.02,29.98Z"/>
    <path class="cls-22" d="M664.17,770.56c0-19.84-16.09-35.93-35.93-35.93s-30.73,8.27-35.06,28.06c-10.05,45.94-31.13,168.3-31.13,168.3h62.25l39.46-155.37c.23-1.66.4-3.34.4-5.06Z"/>
    <path class="cls-16" d="M665.16,628.35h0c-11.88,6.74-27.12,2.53-33.86-9.35l-44.82-79c-6.74-11.88-2.53-27.12,9.35-33.86h0c11.88-6.74,27.12-2.53,33.86,9.35l44.82,79c6.74,11.88,2.53,27.12-9.35,33.86Z"/>
    <path class="cls-23" d="M554.75,401.72s27.55-12.71,33.9-4.36-4.23,11.26-4.23,11.26c0,0,13.14-1.55,12.63,7.31-.51,8.86-33.38-3.24-33.38-3.24,0,0,10.9,4.94,4.6,8.86-6.3,3.92-13.51-1.19-13.51-1.19,0,0-6.25,3.57-5.23,19.99,1.02,16.41-8.77,20.04-8.77,20.04,0,0,1.17-24.87-3.63-31.51-4.8-6.64,2.25-31.3,17.63-27.15Z"/>
    <g>
      <path class="cls-12" d="M551.07,444.14c2.67,4.19,3.39,7.13.1,9.23-3.29,2.1-8.75,1.44-11.42-2.75-2.67-4.19-2.18-9.28,1.11-11.38s7.54.71,10.21,4.9Z"/>
      <path class="cls-33" d="M542.49,443.82s3.38-.5,5.69,3.82c0,0-2.13-.49-4.73,0"/>
    </g>
    <ellipse class="cls-20" cx="570.03" cy="435.36" rx="1.86" ry="2.88"/>
    <path class="cls-32" d="M569.37,453.4s2.76,5.38,9.75,4.12"/>
    <path class="cls-32" d="M576.07,436.46l3.51,10.14c.36,1.03-.04,2.16-.95,2.76l-2.86,1.86"/>
    <path class="cls-32" d="M565.24,430.59s3.92-2.74,7.65-1"/>
    <ellipse class="cls-20" cx="585.52" cy="435.36" rx="1.86" ry="2.88"/>
    <path class="cls-32" d="M589.11,430.43s-2.71-2.58-6.45-.85"/>
    <path class="cls-16" d="M465.03,627.31h0c-13.23-3.43-21.24-17.06-17.81-30.28l22.8-87.92c3.43-13.23,17.06-21.24,30.28-17.81h0c13.23,3.43,21.24,17.06,17.81,30.28l-22.8,87.92c-3.43,13.23-17.06,21.24-30.28,17.81Z"/>
    <path class="cls-12" d="M432.04,695.45l-29.26-18.09-.06.1c-4.39,7.83-20.81,24.05-26.87,29.91-1.35,1.35-1.74,3.32-.97,5.06l7.15,16.54c1.11,2.6,3.27,4.58,5.93,5.47l11.49,3.89c1.17.36,2.31-.66,2.04-1.85l-2.35-9.36c-.3-1.34.35-2.74,1.61-3.27l11.1-4.99-9.28,14.82c-.51.85-.34,1.97.48,2.6l1.17.86c.82.63,1.98.53,2.67-.24l19.95-23.29,4.61-17.35s.22-.27.61-.78Z"/>
    <path class="cls-7" d="M571.13,445.85c-.49,1.46-3.24,1.85-6.14.88s-4.86-2.94-4.37-4.4c.49-1.46,3.24-1.85,6.14-.88,2.9.97,4.86,2.94,4.37,4.4Z"/>
    <path class="cls-7" d="M588.64,441.4v5.63c-2.37.28-4.32-.38-4.65-1.62-.35-1.47,1.72-3.26,4.65-4.02Z"/>
    <polygon class="cls-12" points="668.64 939.85 667.4 915.79 715.95 915.79 716.72 939.85 668.64 939.85"/>
    <polygon class="cls-7" points="716.4 929.78 667.4 915.79 715.95 915.79 716.4 929.78"/>
    <polygon class="cls-12" points="561.75 955.05 565.72 930.99 613.11 930.99 607.08 955.05 561.75 955.05"/>
    <polygon class="cls-25" points="571.39 498.26 562.6 498.26 561.83 499.93 565.88 502.95 569.34 502.95 572.22 499.41 571.39 498.26"/>
    <polygon class="cls-7" points="610.21 942.55 565.72 930.99 613.11 930.99 610.21 942.55"/>
    <path class="cls-16" d="M485.67,576.92c-10.82-7.6-25.22-5.97-31.92,3.62l-58.09,95.36,40.64,25.11,57.93-88.29c6.7-9.59,2.31-28.21-8.57-35.8Z"/>
    <polygon class="cls-15" points="539.67 483.81 567.31 493.98 562.27 505.51 538.46 486.34 539.67 483.81"/>
    <polygon class="cls-15" points="578.38 486.61 579.71 489.31 572.54 504.42 567.31 493.98 578.38 486.61"/>
    <polygon class="cls-25" points="569.34 502.95 582.43 604.58 572.22 617.74 558.95 605.8 565.88 502.95 569.34 502.95"/>
    <line class="cls-32" x1="511.37" y1="553.05" x2="496.83" y2="613.12"/>
    <line class="cls-32" x1="613.55" y1="589.52" x2="614.79" y2="553.05"/>
    <path class="cls-4" d="M561.75,955.05l-4.26,17.54h63.6c2.06-8.98-4.76-17.54-13.97-17.54h-45.37Z"/>
    <path class="cls-4" d="M668.64,939.85v19.09h66.61l-.08-1.57c-.51-9.82-8.62-17.52-18.45-17.52h-48.08Z"/>
    <path class="cls-41" d="M717.68,943.64s1.45-6.34,5.03-4.62c3.58,1.72-4.8,4.85-4.8,4.85l4.98,3.44"/>
    <path class="cls-41" d="M717.68,943.64s-1.45-6.34-5.03-4.62c-3.58,1.72,4.8,4.85,4.8,4.85l-4.98,3.44"/>
    <path class="cls-41" d="M606.63,959.56s1.45-6.34,5.03-4.62c3.58,1.72-4.8,4.85-4.8,4.85l4.98,3.44"/>
    <path class="cls-41" d="M606.63,959.56s-1.45-6.34-5.03-4.62c-3.58,1.72,4.8,4.85,4.8,4.85l-4.98,3.44"/>
    <path class="cls-16" d="M582.39,488.75s2.6,27.18,6.81,68.23c4.21,41.04,3.93,105.11,17.19,117.4,0,0,13.66,1.02,41.31,9.17,0,0-7.73-25.99-17.2-40.71-9.47-14.72-14.11-138.83-14.11-138.83l-33.99-15.26Z"/>
    <polygon class="cls-2" points="584.64 511.72 587.85 543.72 577.64 535.02 578.38 512.34 584.64 511.72"/>
    <path class="cls-16" d="M529.73,485.41s10.6,45.75,15.6,86.57c5,40.82,3.3,80.29,16.16,104.26,0,0-51.59,9.28-51.47,30.09,0,0-14.54-16.04-14.67-38.01-.13-21.97-7.28-177.26-7.28-177.26l41.65-5.65Z"/>
    <line class="cls-36" x1="623.07" y1="604.49" x2="616.39" y2="568.85"/>
    <line class="cls-36" x1="495.31" y1="609.5" x2="504.1" y2="568.85"/>
  </g>
  <g>
    <path class="cls-12" d="M1049.03,917.65c-.96,1.7,6.78,10.69,14.19,15.15,6.28,3.79,21.69,10.98,26.25,13.06l12.58-19.65c-2.26-1.89-4.68-4.06-6.52-6.17-4.58-5.17-18.63-17.81-20.45-15.76-1.82,2.02,6.08,12.64,4.62,12.87-1.46.23-9.06-6.2-12.07-9.2-3.04-3-8.48-10.46-10.93-10.08-2.49.38-2.85,4.03-2.85,4.03,0,0-1.75-3.1-3.48-1.65-1.73,1.45-.21,6.95-.21,6.95,0,0-.77-1.82-2.28.25-1.51,2.1,3.55,9.49,3.55,9.49,0,0-1.47-1.02-2.39.72Z"/>
    <path class="cls-23" d="M1246.56,801.12c16.33,1.42,30.51,15.29,30.7,35.11.2,19.82,3.79,30.02,15.77,27.71,0,0-33.56,19.46-77.78,2.29,0,0,5.54-6.57,6.32-21.46.78-14.88,24.98-43.66,24.98-43.66Z"/>
    <path class="cls-25" d="M1160.69,1003.61h0c10.4,5.6,23.5,1.67,29.1-8.74l42.09-78.2c5.6-10.4,1.67-23.5-8.74-29.1h0c-10.4-5.6-23.5-1.67-29.1,8.74l-42.09,78.2c-5.6,10.4-1.67,23.5,8.74,29.1Z"/>
    <path class="cls-26" d="M1256.35,1029.63c14.06,18.41,19.36,56.59,10.4,97.72-8.97,41.13-12,68.16-12,68.16-2.34,19.04-19.67,32.58-38.7,30.24-19.04-2.34-32.58-19.67-30.24-38.7l14.3-157.42h56.24Z"/>
    <path class="cls-25" d="M1259.45,878.66l37.59,17.03s-8.36,96.78-9.22,107.36,2.38,26.57,2.38,26.57h-90.09s1.08-51.85-4.97-66.33c-4.1-9.81-6.91-15.77-4.54-27.01,2.38-11.23,19.77-31.1,16.96-50.54l19.61-6.28,32.28-.81Z"/>
    <path class="cls-25" d="M1327.21,1019.22h0c11.09-4.06,16.85-16.46,12.79-27.56l-30.54-83.39c-4.06-11.09-16.46-16.85-27.56-12.79h0c-11.09,4.06-16.85,16.46-12.79,27.56l30.54,83.39c4.06,11.09,16.46,16.85,27.56,12.79Z"/>
    <path class="cls-3" d="M1222.64,822.58s-5.11-12.58,7.18-16.39l-7.18,16.39Z"/>
    <path class="cls-12" d="M1227.17,835.73v43.73s.88,9.59,12.27,10.44c9.83.75,16.1-5.73,18.75-9.19l1.39-2.03.03-.03-4.64-42.92h-27.8Z"/>
    <polygon class="cls-7" points="1227.18 874.49 1246.56 853.41 1227.17 860.7 1227.18 874.49"/>
    <path class="cls-12" d="M1246.41,858.08c-9.06,5.34-19.75,5.34-26.2,1-6.45-4.31-5.39-14.25-3.47-20.56t.01-.05c.4-1.3.97-3.14,1.6-5.22,2.47-8.15,6.11-20.22,6.11-20.22,1.59-6.38,19.87-20.73,37.16-2.02,17.29,18.74-6.16,41.72-15.22,47.07Z"/>
    <path class="cls-23" d="M1225.04,810.45s.24,7.64,10.94,12.75c10.71,5.11,20.87,12.92,19.59,24.21-1.28,11.29,2.59,17.66,2.59,17.66,0,0,1.59-14.07,8.69-25.98,2.75-4.62,5.16-14.37.59-22.78-7.21-13.26-25.83-23.34-42.41-5.86Z"/>
    <path class="cls-12" d="M1253.74,844.98c-2.3,3.4-2.96,5.82-.29,7.63s7.21,1.38,9.51-2.02c2.3-3.4,2-7.63-.67-9.44-2.67-1.81-6.25.42-8.55,3.83Z"/>
    <path class="cls-39" d="M1259.77,847.52c-2.24-1.09-4.2-.11-4.2-.11,1.55-3.88,6.21-2.31,6.21-2.31"/>
    <path class="cls-20" d="M1236.92,834.9c-.43,1.53-1.57,2.55-2.56,2.27-.99-.27-1.45-1.74-1.02-3.27.43-1.53,1.57-2.55,2.56-2.27s1.45,1.74,1.02,3.27Z"/>
    <path class="cls-20" d="M1224.48,830.13c-.39,1.41-1.45,2.35-2.37,2.1-.91-.25-1.34-1.61-.94-3.02s1.45-2.35,2.37-2.1c.91.25,1.34,1.61.94,3.02Z"/>
    <path class="cls-26" d="M1173.34,1374.63h61.02l20.95-179.36.27-4.11c0-19.5-16.07-35.22-35.7-34.63-17.7.51-32.54,14.91-33.58,32.62l-12.96,185.48Z"/>
    <path class="cls-35" d="M1242.16,832.48s-2.01-4.67-5.97-4.28"/>
    <path class="cls-35" d="M1226.2,824.69s-2.12-1.04-5.16.72"/>
    <path class="cls-1" d="M1284.78,1374.63h58.23l-18.48-185.27-.05-.64c-1.23-18-16.25-32.21-34.57-32.21s-34.66,15.5-34.66,34.66c0,1.07.05,2.12.16,3.14l29.37,180.33Z"/>
    <path class="cls-25" d="M1083.56,955.1l71.26,45.09,4.22,3.5c8.59,5.95,21.19,2.86,27.95-6.9,6.76-9.76,5.23-22.62-3.36-28.57l-79.82-44.74-1.77,2.73-12.58,19.65-5.9,9.24Z"/>
    <path class="cls-35" d="M1229.64,831.27s-2.28,7.53-6.99,7.22c0,0,1.06,1.68,2.68,2.7"/>
    <path class="cls-1" d="M1228.36,1029.64l.81,5.05,26.14,159.7c2,19.09,19.09,32.92,38.17,30.92,19.05-2,32.92-19.09,30.92-38.17,0,0-3.15-27.02-3.66-69.12-.41-32.61-7.8-58.92-19.43-75.94-3.39-4.95-7.12-9.12-11.12-12.44h-61.83Z"/>
    <path class="cls-35" d="M1222.83,847.3s4.36,3.46,9.43-1"/>
    <path class="cls-7" d="M1244.32,841.59c.05,1.65-2.55,3.07-5.79,3.16-3.24.09-5.91-1.18-5.95-2.83s2.55-3.07,5.79-3.16c3.24-.09,5.91,1.18,5.95,2.83Z"/>
    <path class="cls-7" d="M1220.17,837.68c-.52.88-1.84,1.13-3.42.78.4-1.3.97-3.14,1.6-5.22,1.7,1.55,2.51,3.34,1.82,4.43Z"/>
    <path class="cls-38" d="M1252.2,852.61c-.38,1.41.46,2.86,1.87,3.23,1.41.38,2.86-.46,3.23-1.87.38-1.41-.46-2.86-1.87-3.23-1.41-.38-2.86.46-3.23,1.87Z"/>
    <polygon class="cls-12" points="1354.73 1413.97 1309.78 1413.97 1303.95 1405.09 1304.08 1413.97 1294.18 1413.97 1295.07 1388.31 1292.9 1374.61 1329.51 1374.61 1329.65 1388.31 1354.73 1413.97"/>
    <path class="cls-10" d="M1225.79,879.29l2.27,45.98,30.14-44.55c-2.64,3.46-8.92,9.93-18.75,9.19-11.39-.85-13.66-10.62-13.66-10.62Z"/>
    <polygon class="cls-15" points="1259.34 876.17 1236.87 889.54 1241.62 897.86 1262.51 880.05 1259.34 876.17"/>
    <polygon class="cls-15" points="1227.18 878.09 1236.87 889.54 1231.02 896.6 1224.92 880.2 1227.18 878.09"/>
    <g>
      <polygon class="cls-17" points="1106.38 1019.85 1227.39 1024.93 1199.61 932.98 1078.59 927.9 1106.38 1019.85"/>
      <g>
        <polygon class="cls-11" points="1226.26 1020.47 1267.3 987.13 1150.25 982.22 1105.24 1015.4 1226.26 1020.47"/>
        <polygon class="cls-17" points="1108.75 1017.94 1229.76 1023.02 1201.98 931.07 1080.96 925.99 1108.75 1017.94"/>
        <polygon class="cls-11" points="1080.96 925.99 1078.59 927.9 1199.61 932.98 1227.39 1024.93 1229.76 1023.02 1201.98 931.07 1080.96 925.99"/>
        <polygon class="cls-24" points="1267.3 987.13 1268.43 991.58 1227.39 1024.93 1226.05 1020.46 1267.3 987.13"/>
      </g>
      <path class="cls-11" d="M1134.43,976.67c-.14,3.28,5.76,6.19,13.17,6.5,7.41.31,13.53-2.1,13.67-5.38.14-3.28-5.76-6.19-13.17-6.5-7.41-.31-13.53,2.1-13.67,5.38Z"/>
    </g>
    <polygon class="cls-12" points="1193.04 1413.97 1203.78 1405.97 1202.87 1413.97 1212.87 1413.97 1217.78 1388.31 1220.43 1374.61 1181.65 1374.61 1180.15 1388.31 1149.03 1413.97 1193.04 1413.97"/>
    <polygon class="cls-23" points="1329.65 1388.31 1354.73 1413.97 1309.78 1413.97 1303.95 1405.09 1304.08 1413.97 1294.18 1413.97 1295.07 1388.31 1329.65 1388.31"/>
    <polygon class="cls-23" points="1193.04 1413.97 1203.78 1405.97 1202.87 1413.97 1212.87 1413.97 1217.78 1388.31 1180.15 1388.31 1149.03 1413.97 1193.04 1413.97"/>
    <path class="cls-12" d="M1177.43,997.97c-1.76,1.79.13,4.93.13,4.93,0,0-3.27-1.44-3.76.75-.48,2.03,3.38,5.24,3.88,5.66-.37-.18-1.61-.62-1.57,1.6.02,2.45,7.71,5.18,8.44,5.43-.28.04-1.69.26-1.44,2.02.3,1.97,11.85,4.53,20.45,3.69,7.26-.73,23.82-4.23,28.77-5.29l-1.31-23.23c-3.03-.14-6.43-.46-9.21-1.07-6.78-1.42-25.6-3.1-25.83-.37-.24,2.7,12.44,6.49,11.41,7.54-1.03,1.05-10.96.46-15.16-.12-4.24-.59-13.08-3.33-14.8-1.55Z"/>
    <path class="cls-25" d="M1230.62,986.52l.41,7.02,1.31,23.23.35,6.17,90.06-1.49c10.45-.36,18.68-10.36,18.29-22.23-.44-11.89-9.34-21.27-19.82-20.9l-6.79,1.15h-.03s-83.77,7.05-83.77,7.05Z"/>
    <polyline class="cls-35" points="1247.52 985.1 1290.51 981.49 1281.68 957.35"/>
    <line class="cls-35" x1="1288.92" y1="1022" x2="1308.46" y2="1022"/>
    <path class="cls-34" d="M1231.86,833.89c-1.33,2.69-.76,5.69,1.29,6.71,2.05,1.02,4.79-.34,6.12-3.03s.76-5.69-1.29-6.71c-2.05-1.02-4.79.34-6.12,3.03Z"/>
    <path class="cls-34" d="M1219.58,829.19c-1.33,2.69-.76,5.69,1.29,6.71,2.05,1.02,4.79-.34,6.12-3.03s.76-5.69-1.29-6.71c-2.05-1.02-4.79.34-6.12,3.03Z"/>
    <line class="cls-34" x1="1232.59" y1="832.74" x2="1227.61" y2="831.03"/>
  </g>
  <rect class="cls-13" x="1475.05" y="1311.2" width="98.13" height="102.88"/>
  <rect class="cls-16" x="1459.85" y="1311.2" width="98.13" height="102.88"/>
  <rect class="cls-19" x="1619.73" y="1137.28" width="98.13" height="276.8"/>
  <rect class="cls-25" x="1604.52" y="1137.28" width="98.13" height="276.8"/>
</svg>