<?xml version="1.0" encoding="utf-8"?>
<!-- Generator: Adobe Illustrator 28.1.0, SVG Export Plug-In . SVG Version: 6.00 Build 0)  -->
<svg version="1.1" id="Layer_1" xmlns="http://www.w3.org/2000/svg" xmlns:xlink="http://www.w3.org/1999/xlink" x="0px" y="0px"
	 viewBox="0 0 2548.4 2033.9" style="enable-background:new 0 0 2548.4 2033.9;" xml:space="preserve">
<style type="text/css">
	.st0{fill-rule:evenodd;clip-rule:evenodd;fill:#D1E4F5;}
	.st1{fill-rule:evenodd;clip-rule:evenodd;fill:#DEECF8;}
	.st2{fill-rule:evenodd;clip-rule:evenodd;fill:#FFFFFF;}
	.st3{fill-rule:evenodd;clip-rule:evenodd;fill:#F9AF79;}
	.st4{fill-rule:evenodd;clip-rule:evenodd;fill:#F2705A;}
	.st5{fill-rule:evenodd;clip-rule:evenodd;fill:#BE263D;}
	.st6{fill-rule:evenodd;clip-rule:evenodd;fill:#F4876E;}
	.st7{fill-rule:evenodd;clip-rule:evenodd;fill:#263C84;}
	.st8{fill-rule:evenodd;clip-rule:evenodd;fill:#3155A5;}
	.st9{fill-rule:evenodd;clip-rule:evenodd;fill:#F59077;}
	.st10{fill-rule:evenodd;clip-rule:evenodd;fill:#F79D62;}
	.st11{fill-rule:evenodd;clip-rule:evenodd;fill:#4E66AF;}
	.st12{fill-rule:evenodd;clip-rule:evenodd;fill:#EDA580;}
	.st13{fill-rule:evenodd;clip-rule:evenodd;fill:#4361AC;}
	.st14{fill-rule:evenodd;clip-rule:evenodd;fill:#4F6EB4;}
	.st15{fill-rule:evenodd;clip-rule:evenodd;fill:#5998D1;}
	.st16{fill-rule:evenodd;clip-rule:evenodd;fill:#73ACDD;}
	.st17{fill-rule:evenodd;clip-rule:evenodd;fill:#327BBE;}
	.st18{fill-rule:evenodd;clip-rule:evenodd;fill:#4388C7;}
	.st19{fill-rule:evenodd;clip-rule:evenodd;fill:#F37637;}
	.st20{fill-rule:evenodd;clip-rule:evenodd;fill:#EA5724;}
	.st21{fill-rule:evenodd;clip-rule:evenodd;fill:#EE6423;}
	.st22{fill-rule:evenodd;clip-rule:evenodd;fill:#F5916F;}
	.st23{fill-rule:evenodd;clip-rule:evenodd;fill:#FABDA5;}
</style>
<g>
	<g>
		<path class="st0" d="M1274.2,1855c674.5,0,1221.2,30.4,1221.2,68c0,37.6-546.8,68-1221.2,68S53,1960.5,53,1923
			C53,1885.4,599.8,1855,1274.2,1855z"/>
	</g>
	<g>
		<path class="st1" d="M1911.3,454.7c353.4,57.4,593.3,390.5,535.9,743.9c-57.4,353.4-390.5,593.3-743.9,535.9
			c-510.7-83-490.5,103.3-878.7,40.2c-475.1-77.2-797.6-524.9-720.4-1000c77.2-475.1,524.9-797.6,1000-720.4
			C1587.4,132.8,1456,380.7,1911.3,454.7z"/>
	</g>
	<g>
		<g>
			<path class="st0" d="M2379.2,987.7v-75h-19.3v-80.2h-10.4V779h-98v53.5H2241v80.2h-16.3v138.1h-52V811.7h-120.3V651.3h-68.3
				v-41.6H1941v-53.5h-111.4v475.2h-105.4V877.1h-19.3v-86.1h-193.1v86.1h-13.4V1082h-46V952.8h-92.1V773.5h-14.8v-41.9h-135.1v41.9
				h-11.9v229.8h-44.6v-95h-10.4v-31.2h-95.1v31.2h-11.9V1082h-46V963.2h-80.2V838.5l-148.5-65v315.2h-65.4v-85.4H600V877.1h-20.8
				v-38.6H464.8v38.6h-10.4v216.8h-57.9v-47.5h-33.1V748.6h-17.6v-40.9H330v-35.6H287V456.9h-7.4v215.3h-43.1v35.6h-15.8v40.9H203
				v297.7h-33.7l10.1,246.8c119.5,247.2,353.6,434.1,645.1,481.5c8.2,1.3,16.1,2.5,23.9,3.6H1088c160-27.8,257-102.1,615.3-43.9
				c353.4,57.4,686.5-182.5,743.9-535.9c10-61.2,10.9-121.8,4-180.5L2379.2,987.7z"/>
		</g>
		<g>
			<path class="st2" d="M205.2,1342.4v-2.8h10.4v-53.5h98v53.5H324v80.2h16.3v103C287.7,1468.7,242.2,1408.1,205.2,1342.4
				L205.2,1342.4z M376.5,1557.9h15.8v-239.1h120.3v-160.4h68.3v-41.6H624v-53.5h111.4v475.2h105.4v-154.5h19.3V1298h193.1v86.1
				h13.4v204.9h46v-129.2h92.1v-179.3h14.8v-41.9h135.1v41.9h11.9v229.8h44.5v-95h10.4v-31.2h95v31.2h11.9v173.7h46v-118.8h80.2
				v-124.7l148.5-65v315.2h65.3v-85.4h96.5v-126.2h20.8v-38.6h114.4v38.6h10.4V1601h57.9v-47.5h33.1v-297.7h17.6v-40.9h15.8v-35.6
				h43.1V964h7.4v215.3h43.1v35.6h15.8v40.9h17.6v174.7c-132.9,219.4-389.9,347.8-658.7,304.1c-510.7-83-490.5,103.3-878.7,40.2
				C650.7,1746.4,497.4,1668.6,376.5,1557.9z"/>
		</g>
	</g>
	<g>
		<g>
			<path class="st3" d="M1127.8,368.4c-4.3-6.8-4.2-10.3-1.7-15.3c7.9-6.2-12.6-56.4-50.7-59.3c-83.7-6.1-112.5,48-72.7,108.4
				c15.2,22.9,7,46.6,5.2,53.3c5.7,1.4,57.7,46,57.7,46c0,0,11.7-12.4,14.1-23.3c0.7-3.1,3.5-3.8,5.2-7.9c1.7-3.6,0.3-12.2,2.1-16
				l1.1-2.1c4.9-2,9.8-2.5,13.9-2.7c7.9-0.5,22,1.8,28.7-4c5.2-5.1,0.7-13.9,0.7-17.1c-0.1-3.3,0.3-5.6,3.2-9.3
				c2.6-4-1.5-9.5-2.3-9.2c1.3-1.5,5.1-5.1,2.4-7.1c-2.4-3.3-3.9-5.4,4.2-9.1c6.6-4.8,4.3-7.7,2.2-9.4
				C1134.6,379,1132.2,375.3,1127.8,368.4z"/>
		</g>
		<g>
			<path class="st4" d="M1120,410.2c0,0,4.9,2.7,8.2,4.5c2.4,1.3,4.9,2.4,7.3,2.6c0.7-3.6-2.3-7.6-3-7.4c0.3-0.3,0.7-0.8,1.2-1.3
				c-1.7,0.6-3,1-3.3,0.9C1129.4,410,1120,410.4,1120,410.2z"/>
		</g>
		<g>
			<path class="st4" d="M1131.7,416.4c1.2,0.5,2.5,0.8,3.7,0.9c0-0.1,0-0.3,0.1-0.4C1133.6,416.9,1132.2,416.5,1131.7,416.4z"/>
		</g>
		<g>
			<path class="st4" d="M1133.6,408.6c-1.7,0.6-3,1-3.3,0.9c-0.9,0.4-10.3,0.8-10.3,0.6c0,0,3.6,2.1,6.8,3.7
				c-0.2-0.2-1.4-1.4-0.5-1.8c0.9-0.4,4.3-0.7,7.4-1.2c-0.5-0.6-1-1-1.2-0.9C1132.7,409.6,1133.1,409.2,1133.6,408.6z"/>
		</g>
		<g>
			<path class="st4" d="M1135.6,403.9l-0.8-0.1c-1.7-0.1-5.6,2.5-7.2,3.8c-1.6,1.4-4.5,2.6-6.4,2.4c-1.8-0.2-3-0.6-3-0.6
				c5.4,2.5,9.5,2.2,14.6,0.7c-0.1-0.1-0.3-0.1-0.4-0.1C1133.5,408.7,1136.4,405.9,1135.6,403.9z"/>
		</g>
		<g>
			<path class="st5" d="M1132.4,409.9c-4.7,1.3-8.4,2-14.3-0.5c0,0,0,0,0,0c4.6,2.5,10.1,2.5,14.9,0.9
				C1132.8,410,1132.6,409.9,1132.4,409.9L1132.4,409.9z"/>
		</g>
		<g>
			<path class="st6" d="M1135.5,415.8c-1.6-0.1-3.3-0.6-4.9-1.5c-2.2-1.2,0.3-1.9,3.5-2.6C1134.9,412.8,1135.5,414.3,1135.5,415.8z"
				/>
		</g>
		<g>
			<path class="st7" d="M1091,359.9c0,0,6.2-8.9,11-12.2c11-1.9,22.6-1,25.5-0.7l0.6,0.9l-0.3,4.2l-0.9,0.8
				c-3.3-0.3-16.7-1.4-23.5,0.4C1095.8,356.7,1091,360,1091,359.9z"/>
		</g>
		<g>
			<path class="st2" d="M1121,373c0,0-0.8,0.6-2.7,0.8c-5.3,0.6-15.1-4.2-15.1-10.3c0,0,4.3-4.2,9.8-5.5c1.5-0.3,3.1-0.5,4.8-0.2
				c1.1,0.9,2.1,2.2,2.8,3.6c0.5,1,0.9,2.3,1,3.7C1122.1,369.4,1121,373,1121,373z"/>
		</g>
		<g>
			<path class="st8" d="M1115.4,357.7c-1.8,1.5-2.8,5.2-2.4,9.3c0.3,2.6,1,5,2.1,6.6c1.2,0.2,2.3,0.3,3.3,0.2
				c1.9-0.2,2.7-0.8,2.7-0.8c0,0,1.1-3.6,0.5-7.9c-0.2-1.3-0.5-2.6-1-3.7c-0.7-1.4-1.7-2.7-2.8-3.6
				C1116.9,357.7,1116.1,357.7,1115.4,357.7z"/>
		</g>
		<g>
			<path class="st7" d="M1103.2,363.5c1-1.3,2.2-2.3,3.3-3.2c1.2-0.9,2.4-1.6,3.7-2.2l0.9-0.4l1-0.3l1-0.2l0.5-0.1l0.5-0.1l1-0.1
				l1,0l0.5,0l0.5,0.1l0.9,0.2l0,0l0.1,0.1l0.9,1l0.8,1.1l0.6,1.3l0.5,1.4l-0.8-1.1l-0.8-1l-0.9-0.8l-0.9-0.7l0.1,0.1l-0.9,0l-0.4,0
				l-0.5,0l-0.9,0.1l-0.9,0.1l-0.5,0.1l-0.4,0.1l-0.9,0.2l-0.9,0.3l-0.9,0.3C1108,360.6,1105.6,361.9,1103.2,363.5z"/>
		</g>
		<g>
			<path class="st2" d="M1114,359.8c-1,0.1-1.7,1.6-1.5,3.5c0.2,1.8,1.1,3.2,2.2,3.1c1-0.1,1.7-1.6,1.5-3.5
				C1116,361.1,1115.1,359.7,1114,359.8z"/>
		</g>
		<g>
			<path class="st9" d="M1024.1,382.7c-0.9-4.7,1.1-8.7,3.9-9.7c3.8-1.1,8.5,1.3,12.1,5.8c3.7,4.8,4.5,8.8,5.5,15.4
				c0.9,4.7,4.7,7.3,7.7,7.4c0,0,3,1.2,1.9,3.5c-1.1,2.3-3.9-0.7-6.3-0.1c-2.4,0.6-5.6,3.2-12.7-0.9c-7.1-4.1-10.2-12.3-11.6-18.5
				L1024.1,382.7z"/>
		</g>
		<g>
			<path class="st6" d="M1042.9,400.5c-1.4-2-1.7-5.4-1.5-7.7c0.3-2.5,1.7-4.2-0.5-6.7c-1.4-1.7-3.5-0.8-4.3,0.8
				c-0.8,1.8-0.8,4-0.3,6.3c0.2,1.1,0.6,2.2,0.9,3.3c0.2,0.5,0.8,1.6,0.6,2.1c-0.3,1-0.9-0.7-1.1-1.2c-0.7-1.8-1.3-3.9-1.5-5.8
				c-0.4-3.2,1.1-5.4,0.4-8.6c-1.7-7.3-7.9-8.2-10.6-4.1c-0.5,2.1-0.5,4.8-0.3,7.4c-0.1-0.2-0.1-0.4-0.1-0.6l-0.6-2.9
				c-0.9-4.7,1.1-8.7,3.9-9.7c3.8-1.1,8.5,1.3,12.1,5.8c3.7,4.8,4.5,8.8,5.5,15.4c0.7,3.5,2.8,5.8,5.1,6.8
				C1048.8,403.6,1045.2,404,1042.9,400.5z"/>
		</g>
		<g>
			<path class="st4" d="M1036.2,404.2c-6.4-3.7-9.5-10.8-11.1-16.7c7.3,16.2,18.4,18.3,21.1,18.5
				C1044.1,406.7,1041,406.9,1036.2,404.2z"/>
		</g>
		<g>
			<path class="st4" d="M1024.1,382.7c-0.9-4.7,0.7-8.5,3.4-10c3.2-1.7,7.5,0.5,10.7,3.4c3.4,3.1,5.7,7.8,6.9,13
				c0.7,3,0.7,6.1,2.4,8.7c1.5,2.3,3.9,3.3,5.8,3.5c0.2,0,0.2,0.5,0,0.5c-2.5,0.1-5.7-1.5-7.3-5.1c-1-2.2-1.1-4.7-1.6-7
				c-0.5-2.7-1.3-5.2-2.6-7.6c-2.6-4.9-6.8-8.1-10.6-8.9C1027,372.5,1023.1,376.1,1024.1,382.7
				C1024.1,382.7,1024.1,382.7,1024.1,382.7z"/>
		</g>
		<g>
			<path class="st7" d="M1071.1,316.4c30.4,8,45.5,5,57-23.3c-25.2,11.2-37-26.6-93-10.1c4.4-3.1,9.1-5.2,15.7-7.3
				c-17.5,1.9-40.5,9.1-48.9,29.2c-14,9.5-16.6,12.4-23.5,27.3c3-3.4,4.3-4.8,8-7.5c-9.7,14.7-11.2,27.2-1.7,47.3
				c5.9,12.4,16.4,29.1,24.9,44.7c8-5.2,15.6-12.2,16.6-17c-4.6-8-6.3-17.3-4.1-24c2.3-7.4,9.5-8.6,16.3-3.3
				c10,9.4,9,24.1,20.3,26.2c0.8-15.5-0.3-26.8,10.6-36.7c4.7-4.3,6.8-8.1-0.6-23.6l4.7,6.5C1068.6,332.1,1069.2,328.9,1071.1,316.4
				z"/>
		</g>
		<g>
			<path class="st10" d="M1092,451c-14.7-2.2-27.8-10.3-39.2-24.3c10.6,23,17.4,41.7,20.4,56.3c1.3,0.8,2.6,1.5,3.9,2.2
				c1.1-2.3,2.1-4.7,2.6-7c0.7-3.2,3.5-3.8,5.2-7.9c1.7-3.6,0.3-12.2,2.1-16l1.1-2.1C1089.4,451.7,1090.7,451.3,1092,451z"/>
		</g>
		<g>
			<path class="st3" d="M641.4,1248.7c-19.9-17.7-28.3-38.2-20.3-59.2c7.2,1.2,15.8,1.3,25.7,0.3c-4.1,17.9,1.7,38.2,11.5,55.7
				C652.1,1246.2,646.4,1247.3,641.4,1248.7z"/>
		</g>
		<g>
			<path class="st7" d="M597.3,1381.9c-35.8-39.8-7.3-111.6-14.9-200.3c21.8-3.7,32-1.3,45.7,5.6c-11.9,24.3-6.4,43.9,17,64
				c-2.7,6.8-29,40.9-33.9,62.2C603.2,1348.6,614.9,1374.3,597.3,1381.9z"/>
		</g>
		<g>
			<path class="st7" d="M581.8,1181.7c1.6,19.1,1.6,38.3,0.7,57.4c-0.8,17.2-2.4,34.3-3.5,51.5c-1,14.8-1.7,30-0.3,44.8
				c1.2,13,4.2,25.9,10.9,37.4c2.1,3.7,4.6,7.2,7.5,10.4c-3.5,1.6-5,1.4-8.3,1.4c-28-24.7-18.6-101.4-15.2-136.6l-3.4,0.2l-6.5-67
				c8-0.4,10-0.5,18,0L581.8,1181.7z"/>
		</g>
		<g>
			<path class="st2" d="M597.3,1381.9c0.3,0.5,0.2,0.9-0.3,1.3c-2.8-3.2-5.3-6.7-7.5-10.4c-6.7-11.5-9.7-24.4-10.9-37.4
				c-1.4-14.8-0.7-30,0.3-44.8c1.1-17.2,2.7-34.3,3.5-51.5c0.9-19.2,1-38.3-0.7-57.4l0-0.6c0.3,0,0.6,0.1,0.6,0.4
				C590,1270.3,561.5,1342.1,597.3,1381.9z"/>
		</g>
		<g>
			<path class="st3" d="M1529.9,1246.2c-4.7,26.2-17.9,44.1-40,48.2c-2.7-6.8-7.1-14.2-13.2-22.1c17.4-5.8,31.7-21.4,41.6-38.9
				C1522.2,1238.4,1526.1,1242.7,1529.9,1246.2z"/>
		</g>
		<g>
			<path class="st7" d="M1666.5,1214.5c-15.3,51.3-91.4,64.4-163.2,117.2c-14.5-16.6-17.8-26.6-19-41.9c27-2.5,40.8-17.4,45.7-47.9
				c7.2-1.3,50.1,3.4,70.7-3.5C1635,1226.8,1650.9,1203.4,1666.5,1214.5z"/>
		</g>
		<g>
			<path class="st7" d="M1503.8,1332.1c15.5-11.4,31.8-21.3,48.7-30.5c15.1-8.2,30.5-15.8,45.7-23.8c13.1-6.9,26.5-14.2,38.3-23.1
				c10.5-7.8,19.9-17.1,26.2-28.8c2-3.8,3.7-7.7,5-11.8c3.2,2.1,3.8,3.5,5.5,6.4c-6.5,36.7-76.8,68.7-108.6,84.1l1.9,2.8l-53.8,40.5
				c-4.5-6.6-5.6-8.3-9.4-15.4L1503.8,1332.1z"/>
		</g>
		<g>
			<path class="st2" d="M1666.5,1214.5c0.3-0.5,0.7-0.7,1.2-0.5c-1.3,4.1-3,8.1-5,11.8c-6.3,11.7-15.8,21-26.2,28.8
				c-11.9,8.9-25.2,16.2-38.3,23.1c-15.2,8-30.7,15.6-45.7,23.8c-16.8,9.2-33.2,19.1-48.7,30.5l-0.5,0.3c-0.2-0.3-0.2-0.6,0-0.8
				C1575.1,1278.9,1651.2,1265.8,1666.5,1214.5z"/>
		</g>
		<g>
			<path class="st11" d="M910.5,682.1c5.2,29.9,33.5,49.9,63.4,44.7c29.8-5.2,49.9-33.5,44.7-63.4c-5.2-29.9-33.5-49.9-63.4-44.7
				C925.4,623.8,905.3,652.2,910.5,682.1z"/>
		</g>
		<g>
			<polygon class="st12" points="661,1201.8 642.1,1206.3 656.5,1252.9 674.9,1248.9 			"/>
		</g>
		<g>
			<polygon class="st12" points="1476.6,1260.1 1489.9,1273.3 1520.7,1237.9 1508,1224.9 			"/>
		</g>
		<g>
			<path class="st13" d="M1096.9,917.8c-4.9,8-12.5,22.7-20.9,39.6c-3.4,6.9-7,14.2-10.5,21.5c-17,35.4-33.6,71.5-33.6,71.5
				c0,0-76,141.1-111,156.4C852.1,1237,655,1261,655,1261l-20.5-73.4c0,0,110.7-17.2,156-34.5c52.6-20.1,88.4-20,103.1-64.4
				c9.7-29.6,28.9-130.6,29.1-131.5c5.8-50.5,16-115.9,31.6-136.2C967.2,803.9,1096.9,917.8,1096.9,917.8z"/>
		</g>
		<g>
			<path class="st14" d="M1337.2,997.8c-10.1-22.6-66-73.1-103.5-101.9c-59.4-46.3-101.1-84.4-101.1-84.4s-191.2,73.8-181.9,92
				c21,36.2,249,129.5,260.5,134.9c43.1,20.1,40.9,35.1,75.3,73.7c30.8,34.6,192.6,174.3,192.6,174.3l54.8-55.3
				C1533.9,1231.1,1352.9,1033,1337.2,997.8z"/>
		</g>
		<g>
			<path class="st3" d="M1328.4,565.7c0,0-15.6,7.3-24.7,9.6c-9.2,2.2,2-30.7,2-30.7L1328.4,565.7z"/>
		</g>
		<g>
			<path class="st10" d="M1300.5,538.1c0,0,4-25.8,4.8-29.7c0.7-3.9,8.6-11.9,18.3-20.2c9.8-8.3,26.7-15.2,28.8-14.6
				c2.1,0.6,4.6,0.2,8.1,4.6c3.6,4.4,4.2,10.1,4.2,10.1s7,3.4,7.2,10.4c0,0,6.4,3.5,5.4,11.5c0,0,6.2,3.5,4.9,9.3
				c0,0-7.8,8-9.9,11.7c-2,3.8-24.9,22.1-43.9,34.3C1328.4,565.7,1312.1,568.4,1300.5,538.1z"/>
		</g>
		<g>
			<path class="st3" d="M1349.8,475.7c0,0-24.3,21.7-21.2,26.1c3,4.3,6.8,4.1,6.8,4.1l-5.9,13.5c0,0,1.1,11.1,12.9,6.7
				c0,0,0,10.5,10.8,4.8c0,0,3.1,6.9,8.6,5.2c5.5-1.7,20.5-16.4,20.5-16.4s2.5-4.8-4.2-9.6c0,0,1.3-7.7-5.6-11.5
				c0,0,0.3-6.3-7.1-10.4c0,0-1.2-13.9-12.9-14.5C1352.4,473.6,1350.8,474.7,1349.8,475.7z"/>
		</g>
		<g>
			<path class="st3" d="M1305.9,507.6c0,0,21.6-5.7,34.8-3.6c3,0.5,5.8,1.5,6.5,4.4c0.7,2.9-2.7,7.7-11.9,10.6
				c-9.2,2.9-19.8,11-19.8,11S1305,530.2,1305.9,507.6z"/>
		</g>
		<g>
			<path class="st15" d="M1033.5,498.2c0,0,65.8,85.2,115.3,112.1c15.5,8.4,143.3-79.9,149.2-76.4c5.9,3.4,21.1,49.2,21.1,49.2
				s-139.2,105.1-165,106.7c-28.8-0.2-167.3-103.4-177.8-119.9c-10.6-16.5-14.5-38.3,1.5-51.8
				C1000.2,499.2,1033.5,498.2,1033.5,498.2z"/>
		</g>
		<g>
			<path class="st2" d="M1044.4,481.5c0,0,18.4,4.4,28.1,26.8c7.2,16.6,14.2,35.2,16.7,49.8c5.9,34.3-4.7,128.6-2.1,147.8
				c2.6,19.3,45.3,105.6,45.3,105.6l-197,88.4c0,0-14.5-53.4-24.6-118.7c-10.1-65.3-0.2-122-1.8-160.1
				c-5.5-129.9,93.9-175.8,93.9-175.8L1044.4,481.5z"/>
		</g>
		<g>
			<path class="st2" d="M1011.4,432.9c0,0,38.9,47.3,61.8,59l-3.5,32.1l-66.7-78.7L1011.4,432.9z"/>
		</g>
		<g>
			<polygon class="st7" points="1132.6,811.5 1123.7,793.3 930.3,879 936,901.7 			"/>
		</g>
		<g>
			<path class="st16" d="M1079.7,585.2c-2.2,12.1-4.2,24.3-5.8,36.5v0c-3.7,26.8-6.1,53.8-7.6,79.8c-0.5,9.3-0.9,18.5-1.3,27.6
				c-3.7,107.9-46.7,193.9-46.7,193.9s-84.9,7.4-106.7-3.1c0,0-14.9-121.1-7.6-241.3c0.6-9.3,1.2-18.6,2.1-27.8l0,0
				c0.5-105,34.5-188.1,96.8-205.4C1004.5,446.6,1091.4,521.7,1079.7,585.2z"/>
		</g>
		<g>
			<path class="st16" d="M903.6,687.1c0,0,5.6,122.3-36.2,231.5c-5.7,14.8,96.5,6.8,96.5,6.8L903.6,687.1z"/>
		</g>
		<g>
			<path class="st17" d="M1072.8,495.2c0,0,7.5,18.8,7.3,26.9c-0.1,3-10.4,0.1-10.4,0.1L1072.8,495.2z"/>
		</g>
		<g>
			<path class="st15" d="M1010.5,539.7c0,0-56.9,55.6-126.1,122.9C874.1,679,828.2,834,824,840.2c-4.4,8.3-61.6,4.4-68.8-4
				c0,0,33-145.9,60.8-202.9c4.1-11.4,98-133.3,159.6-175c18.7-10.4,25.3-3.9,39,14.4C1033.8,498.5,1018.9,532.9,1010.5,539.7z"/>
		</g>
		<g>
			<path class="st18" d="M1003,445.3c35.3,38.2,52,71.4,50.1,99.5c5.6-2.2,9.3-3.8,11.2-4.7c-1.1,11.7-2.8,19.5-5.4,23.3
				c9.8,8.1,16.7,15.7,20.6,23l0.2-1.1C1091.4,521.7,1004.5,446.6,1003,445.3z"/>
		</g>
		<g>
			<path class="st17" d="M1078.6,520.9c0,0,7.6,79.6-56.2,95.6c-57.2,14.3-130.2,60.5-153.7,87.4l-40.9,29.6l1.5-40.3
				c0,0,10.1-47.6,118.1-74.7c74.5-18.7,121.3,1.9,123.3-104.8C1070.7,513.7,1079.1,517,1078.6,520.9z"/>
		</g>
		<g>
			<g>
				<g>
					<path class="st19" d="M681.7,901.9l222.7,73.6c3.7,1.2,5.5,6.2,4.3,9.9l-65.3,198.8c-2.8,8.4-7,11.5-13,8.5L615.3,1086
						c-3.5-1.7-5.6-6.3-4.3-9.9l62.3-170.7C674.6,901.8,678,900.7,681.7,901.9z"/>
				</g>
				<g>
					<path class="st20" d="M676.7,900.2l222.7,73.6c3.7,1.2,5.5,6.2,4.3,9.9l-65.3,198.7c-2.3,7.2-5.6,8.7-10.7,8.7
						c-3.3,0-6.5,0.7-9.6,2.2l-207.8-109c-3.5-1.8-5.6-6.3-4.3-9.9l62.3-170.7C669.7,900.1,673,898.9,676.7,900.2z"/>
				</g>
				<g>
					<path class="st21" d="M664.2,896.1L895,973.4c3.7,1.2,5.7,6.3,4.3,9.9l-79.8,207.9c-1.4,3.6-4.9,5.2-8.4,3.5l-216.3-105.9
						c-3.5-1.7-5.6-6.3-4.3-9.9l65.4-179.3C657.1,896,660.5,894.9,664.2,896.1z"/>
				</g>
				<g>
					<path class="st19" d="M653.1,960.8c109.6,34.1,177.2,60,190,71.6c-13.4,2.6-56.6,92.3-51.6,129.9
						c-89.1-42.2-149.2-71-180.4-86.3C600.9,1059.2,632.9,989.5,653.1,960.8z"/>
				</g>
				<g>
					<path class="st20" d="M843.1,1032.5c-13.4,2.6-69.2,107.4-51.6,129.9C804.1,1127.9,838.2,1048.6,843.1,1032.5z"/>
				</g>
				<g>
					<path class="st22" d="M668.3,891.6c78.4,28.3,157.1,56.2,236.1,83.9c-21.8-3.7-28.9,11-41.2,61.4c-34.2-1-83.3,2.1-153,13.8
						c-24.3-40.9-57.1-77.6-86.5-102.8c16.2-27.4,14.7-43.8,22.5-51.8C652.4,889.6,659.7,888.3,668.3,891.6z"/>
				</g>
				<g>
					<path class="st23" d="M840.3,1033.9c-31.7,0.6-73.7,4.4-128.7,13.6c-17.5-29.4-39.5-56.7-61.4-78.8c-0.5-0.5-0.9-0.9-1.4-1.4
						c-4.4-4.4-8.8-8.6-13.1-12.6c-3-2.7-5.9-5.3-8.8-7.8c15.9-26.9,14.3-42.9,22-50.7c4.3-4.4,9-6.3,14.3-6
						c-6.5-1.2-12.1,0.7-17.2,5.9c-7.9,8-6.3,24.4-22.5,51.8c3.6,3.1,7.3,6.4,11,9.8c4.2,3.9,8.4,7.9,12.5,12.2
						c0.6,0.6,1.3,1.3,1.9,1.9c21.8,22.3,43.6,49.5,61.1,78.8c53.7-9,95.2-12.9,127-13.8c1.5,0,3-0.1,4.5-0.1
						c7.7-0.1,14.9-0.1,21.5,0.1c10.9-44.6,17.8-61.2,34.2-62c2.2-0.1,4.5,0.1,7.1,0.5c-1.8-0.6-3.7-1.3-5.5-1.9c-0.1,0-0.3,0-0.4,0
						c-1.2-0.1-2.4-0.1-3.5-0.1c-16.2,0.6-22.9,16.9-33.6,60.6c-5.8-0.2-12-0.2-18.7-0.1C841.9,1033.9,841.1,1033.9,840.3,1033.9z"
						/>
				</g>
				<g>
					<path class="st20" d="M753.2,878.2l1.1,0.4c2.1-1.5,5-1.9,7.8-1l50,15.6c2.8,0.9,4.9,3.1,5.8,5.8l1.8,0.6
						c2.6,0.8,4.5,2.6,5.6,4.8c1.1,2.2,1.4,4.8,0.9,7.3l-6.3,34.1L812,943l6-32.9c0.1-0.8,0.1-1.6-0.2-2.1c-0.2-0.3-0.4-0.6-0.7-0.6
						l-0.8-0.3c-2.2,2.7-5.9,4-9.4,2.8l-49.7-16.6c-3.4-1.1-5.8-3.9-6.2-7.1l-0.3-0.1c-0.3-0.1-0.6,0-0.9,0.1
						c-0.5,0.3-1,0.8-1.3,1.5l-12,28.3l-7.8-2.8l12.2-28.8c1-2.4,2.8-4.4,4.9-5.6C748,877.8,750.6,877.4,753.2,878.2z"/>
				</g>
				<g>
					<path class="st19" d="M726.4,907.8l17.2,6.2c1.8,0.7,2.8,2.7,2.3,4.5l-0.2,0.8c-7.9-2.8-15.9-5.7-23.8-8.5l0.3-0.8
						C722.6,908.1,724.6,907.2,726.4,907.8L726.4,907.8z M808.4,936.5l17.3,5.8c1.8,0.6,2.9,2.6,2.3,4.5l-0.5,1.7
						c-8-2.8-15.9-5.6-23.9-8.4l0.4-1.3C804.7,936.8,806.6,935.8,808.4,936.5z"/>
				</g>
			</g>
			<g>
				<path class="st2" d="M703.2,1078.9l3.9,1.6c4.9,2.1,10.1-0.3,11.6-5.4l9.2-30.5l-21.6-9.2l-9.2,30.5
					C695.6,1071,698.3,1076.8,703.2,1078.9z"/>
			</g>
			<g>
				<polygon class="st19" points="720.5,1059 703.8,1051.9 707,1041.4 723.7,1048.5 				"/>
			</g>
			<g>
				<path class="st2" d="M707.8,1033.7l20.8,8.9l3.3-10.7c1.8-5.9-1.4-12.7-7.1-15.2c-5.7-2.4-11.8,0.4-13.6,6.3L707.8,1033.7z"/>
			</g>
		</g>
		<g>
			<path class="st3" d="M747.3,908.9c0,0-1.8-6.7-1.2-9.9c0,0,1.6-5.9,2.5-10.2c0.3-1.4,0.5-2.6,0.6-3.3c0.2-3.3-0.2-10.5,2.6-18.2
				c1.9-5.1,8.1-18.6,12.1-26.9c13,3.7,36.4,5.5,49.9,3.7c2.3,11.7,8.9,45.8,7.4,52c-0.2,0.7-0.4,1.4-0.6,2.1
				c-2.1,6.2-6.3,9.9-7.7,13c-0.6,1.1-6.8,12.1-10.5,12.7c-5.1,0.9-9.1-0.5-11.5-3.1c0,0-10.1,1.3-16-2.3c0,0-9.3,1.5-15.3-5
				C759.6,913.4,750,913.9,747.3,908.9z"/>
		</g>
	</g>
	<g>
		<path class="st20" d="M574.9,1415c-25.8-16.5-65.7-35.8-118.2-43.7c-59.4-9-107.2,3.5-139.4,30c-32.8,27-50.1,66.8-50.1,111.9
			c0,35.8,13,66.7,36,93.4c23.2,26.9,57.1,49.9,98.6,69.8c60.8,29.3,87.3,53.8,87.3,91.5c0,39.1-30.9,65-89.6,63.8
			c-44.4-0.9-90.2-15-118.8-32.2c-6.9,29.5-13.9,59.1-20.6,88.6c25.8,15.8,80.8,30.7,135.1,30.7c64,0,114.1-16.9,148.2-44.3
			c33.8-27.2,52.3-64.9,52.3-109.3c0-33.4-10.1-62.7-30.9-89.2c-20.9-26.8-52.9-50.9-96.7-74.2c-67.4-35.7-94.5-55.6-94.5-94.5
			c0-30.4,25.2-58,81-51c45,5.7,78.7,24,98.1,36.3C560.2,1466.6,567.5,1440.7,574.9,1415L574.9,1415z M2304.7,1361.2
			c-126-24.2-251.7-38.4-377.5-44.8c0,33,0,66,0,99c45,1.3,90.2,3.1,135.4,5.9c0,81.7,0,163.4,0,245.1c0,81.6,0,163.3,0,244.9
			c35.2,0.1,70.5,0.1,105.9,0.2c0-80,0-160,0-240.1c0-80,0-160,0-240.1c45.4,6.2,90.8,13.5,136.2,21.6
			C2304.7,1422.3,2304.7,1391.8,2304.7,1361.2L2304.7,1361.2z M1789.2,1628.6c51.5-22.4,94.5-75.7,94.5-148.5
			c0-79.7-35.1-122.1-78.9-143.1c-43.7-21-96.3-20.6-130.9-18c-53.8,4.1-105.3,14.7-141.7,25.4c0,94.6,0,189.1,0,283.6
			c0,94.4,0,188.9,0,283.4c35-0.1,69.9-0.1,105.1-0.1c0-39.6,0-79,0-118.6c0-39.5,0-79,0-118.6c11.9-0.4,23.7-0.9,35.8-1.2
			c50.1-1.4,72.7,22,86.7,98c13.2,71.6,26.6,123.4,34.4,140.3c36.2,0,72.4,0,108.8,0c-5.3-11.2-11.9-34.6-18.6-64
			c-6.7-29.4-14.5-64.8-22.1-100.1c-13-60.3-34.3-100.4-73-116.1C1789.2,1630.2,1789.2,1629.4,1789.2,1628.6L1789.2,1628.6z
			 M1637.3,1590.4c0-29.6,0-59.3,0-88.9c0-29.6,0-59.4,0-89c8.6-3.6,25.1-6.6,48.7-7.9c38.6-2.2,91.6,10.5,91.6,86.9
			c0,56.3-36.4,94.9-96.5,97C1666.3,1588.9,1651.8,1589.7,1637.3,1590.4L1637.3,1590.4z M1306.7,1369.6
			c-44.6,7.9-88.9,16.3-133.3,25.1c-26.2,90.8-51.9,179.9-78.1,267.2c-25.7,85.5-51.9,169-77.9,250.6c35.8-0.1,71.6-0.2,107.3-0.3
			c6.3-22.4,12.7-44.9,19-67.5c6.4-22.7,12.7-45.6,19-68.6c49.1-2.8,98.1-5.3,147.4-7.7c6.5,23.7,13.1,47.4,19.6,71.3
			c6.5,23.9,13.1,47.9,19.8,72c36.8-0.1,73.8-0.1,110.8-0.2c-25.8-93.6-51.4-186.1-77.1-277.1
			C1358,1544.5,1332.2,1456.4,1306.7,1369.6L1306.7,1369.6z M1177.7,1699.9c10.8-40.6,22.2-81.5,32.9-122.9
			c8.3-31.7,17.2-76.2,24.3-110.4c0.6-0.1,1.4-0.2,2.2-0.3c7.2,31.3,16.1,73,24.9,105.1c10.8,39.4,22.1,79.2,33.1,119.2
			C1256,1693.5,1216.7,1696.6,1177.7,1699.9L1177.7,1699.9z M1009.4,1429.3c-125.7,8.1-251.5-1-377.2-20.3c0,27.9,0,55.8,0,83.7
			c45,6.2,90.2,12,135.4,17c0,67.1,0,134.3,0,201.4c0,67.1,0,134.2,0,201.3c35.2,0.1,70.5,0.1,105.9,0.1c0-66,0-132,0-198.1
			c0-66.1,0-132.2,0-198.2c45.2,0,90.6-2,136-6.6C1009.4,1483,1009.4,1456.2,1009.4,1429.3z"/>
	</g>
	<g>
		<path class="st19" d="M580.5,1408.3c-25.8-16.5-65.7-35.8-118.2-43.7c-59.4-9-107.2,3.4-139.4,30c-32.8,27-50.1,66.8-50.1,111.9
			c0,35.8,13,66.7,36,93.4c23.2,26.9,57.1,49.9,98.6,69.8c60.8,29.3,87.3,53.8,87.3,91.5c0,39.1-30.9,65-89.5,63.8
			c-44.4-0.9-90.2-15-118.8-32.2c-6.9,29.5-13.9,59-20.6,88.6c25.8,15.8,80.8,30.7,135.1,30.7c64,0,114.1-16.9,148.2-44.3
			c33.8-27.2,52.3-64.9,52.3-109.3c0-33.4-10.1-62.7-30.9-89.2c-20.9-26.8-52.9-50.9-96.7-74.2c-67.4-35.7-94.5-55.6-94.5-94.5
			c0-30.4,25.2-58,81-51c45,5.7,78.7,24,98.1,36.3C565.7,1459.9,573.1,1434,580.5,1408.3L580.5,1408.3z M2310.3,1354.5
			c-126-24.2-251.7-38.4-377.5-44.8c0,33,0,66,0,99c45,1.3,90.2,3.1,135.4,5.9c0,81.7,0,163.4,0,245.1c0,81.6,0,163.3,0,244.9
			c35.2,0.1,70.5,0.1,105.9,0.2c0-80,0-160,0-240.1c0-80,0-160,0-240.1c45.4,6.2,90.8,13.5,136.2,21.6
			C2310.3,1415.6,2310.3,1385.1,2310.3,1354.5L2310.3,1354.5z M1794.8,1622c51.5-22.4,94.5-75.7,94.5-148.5
			c0-79.7-35.1-122.1-78.9-143.1c-43.7-21-96.3-20.6-130.9-18c-53.8,4.1-105.3,14.7-141.7,25.4c0,94.6,0,189.1,0,283.6
			c0,94.4,0,188.9,0,283.4c35-0.1,69.9-0.1,105.1-0.1c0-39.6,0-79,0-118.6c0-39.5,0-79,0-118.6c11.9-0.4,23.7-0.9,35.8-1.2
			c50.1-1.4,72.7,22,86.7,98c13.2,71.6,26.6,123.4,34.4,140.3c36.2,0,72.4,0,108.8,0c-5.3-11.2-11.9-34.6-18.6-64
			c-6.7-29.4-14.5-64.8-22.1-100.1c-13-60.3-34.3-100.4-73-116.1C1794.8,1623.5,1794.8,1622.7,1794.8,1622L1794.8,1622z
			 M1642.9,1583.7c0-29.6,0-59.3,0-88.9c0-29.6,0-59.4,0-89c8.6-3.6,25.1-6.6,48.7-7.9c38.6-2.2,91.6,10.5,91.6,86.9
			c0,56.3-36.4,94.9-96.5,97C1671.9,1582.2,1657.4,1583,1642.9,1583.7L1642.9,1583.7z M1312.3,1362.9
			c-44.6,7.9-88.9,16.3-133.3,25.1c-26.2,90.8-51.9,179.9-78.1,267.2c-25.7,85.5-51.9,169-77.9,250.6c35.8-0.1,71.6-0.2,107.3-0.3
			c6.3-22.4,12.7-44.9,19-67.5c6.4-22.7,12.7-45.6,19-68.6c49.1-2.8,98.1-5.3,147.4-7.7c6.5,23.7,13.1,47.4,19.6,71.3
			c6.5,23.9,13.1,47.9,19.8,72c36.8-0.1,73.8-0.1,110.8-0.2c-25.8-93.6-51.4-186.1-77.1-277.1
			C1363.5,1537.9,1337.8,1449.7,1312.3,1362.9L1312.3,1362.9z M1183.2,1693.2c10.8-40.6,22.2-81.5,32.9-122.9
			c8.3-31.7,17.2-76.2,24.3-110.4c0.6-0.1,1.4-0.2,2.2-0.3c7.2,31.3,16.1,73,24.9,105.1c10.8,39.4,22.1,79.2,33.1,119.2
			C1261.5,1686.8,1222.3,1689.9,1183.2,1693.2L1183.2,1693.2z M1015,1422.7c-125.7,8.1-251.5-1-377.2-20.3c0,27.9,0,55.8,0,83.7
			c45,6.2,90.2,12,135.4,17c0,67.1,0,134.3,0,201.4c0,67.1,0,134.2,0,201.3c35.2,0.1,70.5,0.1,105.9,0.1c0-66,0-132,0-198.1
			c0-66.1,0-132.2,0-198.2c45.2,0,90.6-2,136-6.6C1015,1476.3,1015,1449.5,1015,1422.7z"/>
	</g>
	<g>
		<path class="st22" d="M1642.9,1494.8v-84.2v-4.8c8.6-3.6,25.1-6.6,48.7-7.9c38.6-2.2,91.6,10.5,91.6,86.9
			c0,27.2-8.5,50.3-24.1,67.1c-16.6,18-41.4,28.8-72.4,29.8c-14.7,0.5-29.2,1.3-43.8,2V1494.8L1642.9,1494.8z M580.5,1408.3
			c-25.8-16.5-65.7-35.8-118.2-43.7c-59.4-9-107.2,3.4-139.4,30c-32.8,27-50.1,66.8-50.1,111.9c0,35.8,13,66.7,36,93.4
			c3.7,4.3,7.6,8.4,11.8,12.5c50.1-6.1,98.3-13.9,147.4-20.3c-63.2-33.8-88.7-53.6-88.7-91.5c0-30.4,25.2-58,81-51
			c45,5.7,78.7,24,98.1,36.3C565.7,1459.9,573.1,1434,580.5,1408.3L580.5,1408.3z M2174.1,1576c-34,4.1-69.1,9.5-105.9,15.7v-177.2
			c-45.2-2.7-90.4-4.5-135.4-5.9c0-33,0-66,0-99c125.7,6.4,251.5,20.6,377.5,44.8c0,30.6,0,61.1,0,91.6
			c-45.4-8.1-90.8-15.5-136.2-21.6V1576L2174.1,1576z M1399.3,1664.4c-33.8-0.2-68.6-1-104.6-2.7c-9-32.6-18.2-64.9-27-97.1
			c-8.8-32.1-17.8-73.8-24.9-105.1c-0.8,0.1-1.6,0.2-2.2,0.3c-7.2,34.2-16.1,78.7-24.3,110.4c-7.4,28.5-15.1,56.8-22.7,85
			c-29.3-2.4-59.3-5.3-90-8.7c25.3-84.5,50.2-170.6,75.5-258.4c44.4-8.9,88.7-17.2,133.3-25.1c25.6,86.7,51.3,174.9,76.7,264.8
			L1399.3,1664.4L1399.3,1664.4z M879,1613.1c-22.9-4.2-46-8.6-69.6-13.4c-12.3-2.5-24.4-4.7-36.3-6.7v-89.8
			c-45.2-5-90.4-10.8-135.4-17c0-27.9,0-55.8,0-83.7c125.7,19.3,251.5,28.4,377.2,20.3c0,26.8,0,53.6,0,80.5
			c-45.4,4.6-90.8,6.6-136,6.6L879,1613.1L879,1613.1z M1537.8,1342.8v278.5v40.3c96.1-4.6,182.9-14.1,262.3-25.3
			c4.4-0.6,8.7-1.2,13-1.9c-5.1-3.6-10.5-6.8-16.3-9.3c-0.6-0.3-1.3-0.6-2-0.8v-2.3c20.1-8.8,39-22.3,54.4-39.8
			c24.1-27.3,40-64.4,40-108.7c0-79.7-35.1-122.1-78.9-143.1c-43.7-21-96.3-20.6-130.9-18c-53.8,4.1-105.3,14.7-141.7,25.4V1342.8z"
			/>
	</g>
	<g>
		<path class="st22" d="M671.4,785.5c2.9,0,5.3,2.4,5.3,5.3s-2.4,5.3-5.3,5.3h-59.3c-2.9,0-5.3-2.4-5.3-5.3c0-2.9,2.4-5.3,5.3-5.3
			H671.4L671.4,785.5z M856.1,395.7c2.9,0,5.3,2.4,5.3,5.3s-2.4,5.3-5.3,5.3H417c-2.9,0-5.3-2.4-5.3-5.3c0-2.9,2.4-5.3,5.3-5.3
			H856.1L856.1,395.7z M782.9,507.3c2.9,0,5.3,2.4,5.3,5.3s-2.4,5.3-5.3,5.3H657.4c-2.9,0-5.3-2.4-5.3-5.3s2.4-5.3,5.3-5.3H782.9
			L782.9,507.3z M737.6,601.3c2.9,0,5.3,2.4,5.3,5.3s-2.4,5.3-5.3,5.3H382.1c-2.9,0-5.3-2.4-5.3-5.3c0-2.9,2.4-5.3,5.3-5.3H737.6
			L737.6,601.3z M702.8,731.2c2.9,0,5.3,2.4,5.3,5.3c0,2.9-2.4,5.3-5.3,5.3H525c-2.9,0-5.3-2.4-5.3-5.3s2.4-5.3,5.3-5.3H702.8z"/>
	</g>
</g>
</svg>
